<?xml version="1.0" encoding="UTF-8" standalone="no"?>
<svg
   width="576"
   height="520"
   version="1.1"
   id="svg1"
   sodipodi:docname="icoar613.svg"
   inkscape:version="1.4.2 (ebf0e940d0, 2025-05-08)"
   xml:space="preserve"
   xmlns:inkscape="http://www.inkscape.org/namespaces/inkscape"
   xmlns:sodipodi="http://sodipodi.sourceforge.net/DTD/sodipodi-0.dtd"
   xmlns="http://www.w3.org/2000/svg"
   xmlns:svg="http://www.w3.org/2000/svg"><defs
     id="defs1" /><sodipodi:namedview
     id="namedview1"
     pagecolor="#451545"
     bordercolor="#ffffff"
     borderopacity="1"
     inkscape:showpageshadow="0"
     inkscape:pageopacity="0"
     inkscape:pagecheckerboard="false"
     inkscape:deskcolor="#505050"
     inkscape:zoom="0.83061265"
     inkscape:cx="225.73699"
     inkscape:cy="235.36843"
     inkscape:window-width="1536"
     inkscape:window-height="828"
     inkscape:window-x="0"
     inkscape:window-y="0"
     inkscape:window-maximized="1"
     inkscape:current-layer="svg1" /><!-- Created with SVG-edit - http://svg-edit.googlecode.com/ --><g
     id="g19"
     style="fill:#dddddd;fill-opacity:1;stroke-width:1.34621"
     inkscape:label="g19"
     transform="matrix(0.74364961,0,0,0.74200563,74.213438,279.4081)"><g
       id="g1"
       style="fill:#dddddd;fill-opacity:1;stroke-width:1.34621"
       transform="matrix(-1,0,0,1,193,0)"><polygon
         fill="#dddddd"
         id="a"
         points="50,15 143,15 160,33 143,50 50,50 33,32 "
         transform="matrix(-1,0,0,1,193,0)"
         style="fill:#dddddd;fill-opacity:1;fill-rule:evenodd;stroke:#ffffff;stroke-width:5.38483" /><polygon
         fill="#dddddd"
         id="b"
         points="178,50 178,143 161,160 143,143 143,50 160,33 "
         transform="matrix(-1,0,0,1,193,0)"
         style="fill:#dddddd;fill-opacity:1;fill-rule:evenodd;stroke:#ffffff;stroke-width:5.38483" /><polygon
         fill="#dddddd"
         id="c"
         points="178,178 178,271 161,288 143,271 143,178 161,160 "
         transform="matrix(-1,0,0,1,193,0)"
         style="fill:#de0004;fill-opacity:1;fill-rule:evenodd;stroke:#ffffff;stroke-width:5.38483" /><polygon
         fill="#dddddd"
         id="d"
         points="143,306 50,306 33,288 50,271 143,271 161,288 "
         transform="matrix(-1,0,0,1,193,0)"
         style="fill:#de0004;fill-opacity:1;fill-rule:evenodd;stroke:#ffffff;stroke-width:5.38483" /><polygon
         fill="#dddddd"
         id="e"
         points="15,271 15,178 33,160 50,178 50,271 33,288 "
         transform="matrix(-1,0,0,1,193,0)"
         style="fill:#de0004;fill-opacity:1;fill-rule:evenodd;stroke:#ffffff;stroke-width:5.38483" /><polygon
         fill="#dddddd"
         id="f"
         points="15,143 15,50 33,32 50,50 50,143 33,160 "
         transform="matrix(-1,0,0,1,193,0)"
         style="fill:#dddddd;fill-opacity:1;fill-rule:evenodd;stroke:#ffffff;stroke-width:5.38483" /><polygon
         fill="#dddddd"
         id="g"
         points="50,143 143,143 161,160 143,178 50,178 33,160 "
         transform="matrix(-1,0,0,1,193,0)"
         style="fill:#de0004;fill-opacity:1;fill-rule:evenodd;stroke:#ffffff;stroke-width:5.38483" /><polygon
         fill="#dddddd"
         id="h"
         points="143,73 73,143 50,143 50,120 120,50 143,50 "
         transform="matrix(-1,0,0,1,193,0)"
         style="fill:#de0004;fill-opacity:1;fill-rule:evenodd;stroke:#ffffff;stroke-width:5.38483" /><polygon
         fill="#dddddd"
         id="i"
         points="143,201 73,271 50,271 50,248 120,178 143,178 "
         transform="matrix(-1,0,0,1,193,0)"
         style="fill:#dddddd;fill-opacity:1;fill-rule:evenodd;stroke:#ffffff;stroke-width:5.38483" /></g><g
       id="g9"
       transform="matrix(-1,0,0,1,384.5,0)"
       style="display:inline;fill:#dddddd;fill-opacity:1;stroke-width:1.34621"><polygon
         fill="#dddddd"
         id="polygon1"
         points="50,50 33,32 50,15 143,15 160,33 143,50 "
         transform="matrix(-1,0,0,1,193,0)"
         style="fill:#dddddd;fill-opacity:1;fill-rule:evenodd;stroke:#ffffff;stroke-width:5.38483" /><polygon
         fill="#dddddd"
         id="polygon2"
         points="143,50 160,33 178,50 178,143 161,160 143,143 "
         transform="matrix(-1,0,0,1,193,0)"
         style="fill:#de0004;fill-opacity:1;fill-rule:evenodd;stroke:#ffffff;stroke-width:5.38483" /><polygon
         fill="#dddddd"
         id="polygon3"
         points="143,178 161,160 178,178 178,271 161,288 143,271 "
         transform="matrix(-1,0,0,1,193,0)"
         style="fill:#de0004;fill-opacity:1;fill-rule:evenodd;stroke:#ffffff;stroke-width:5.38483" /><polygon
         fill="#dddddd"
         id="polygon4"
         points="143,271 161,288 143,306 50,306 33,288 50,271 "
         transform="matrix(-1,0,0,1,193,0)"
         style="fill:#dddddd;fill-opacity:1;fill-rule:evenodd;stroke:#ffffff;stroke-width:5.38483" /><polygon
         fill="#dddddd"
         id="polygon5"
         points="50,271 33,288 15,271 15,178 33,160 50,178 "
         transform="matrix(-1,0,0,1,193,0)"
         style="fill:#dddddd;fill-opacity:1;fill-rule:evenodd;stroke:#ffffff;stroke-width:5.38483" /><polygon
         fill="#dddddd"
         id="polygon6"
         points="50,143 33,160 15,143 15,50 33,32 50,50 "
         transform="matrix(-1,0,0,1,193,0)"
         style="fill:#dddddd;fill-opacity:1;fill-rule:evenodd;stroke:#ffffff;stroke-width:5.38483" /><polygon
         fill="#dddddd"
         id="polygon7"
         points="50,178 33,160 50,143 143,143 161,160 143,178 "
         transform="matrix(-1,0,0,1,193,0)"
         style="fill:#dddddd;fill-opacity:1;fill-rule:evenodd;stroke:#ffffff;stroke-width:5.38483" /><polygon
         fill="#dddddd"
         id="polygon8"
         points="120,50 143,50 143,73 73,143 50,143 50,120 "
         transform="matrix(-1,0,0,1,193,0)"
         style="fill:#de0004;fill-opacity:1;fill-rule:evenodd;stroke:#ffffff;stroke-width:5.38483" /><polygon
         fill="#dddddd"
         id="polygon9"
         points="120,178 143,178 143,201 73,271 50,271 50,248 "
         transform="matrix(-1,0,0,1,193,0)"
         style="fill:#dddddd;fill-opacity:1;fill-rule:evenodd;stroke:#ffffff;stroke-width:5.38483" /></g><g
       id="g18"
       transform="matrix(-1,0,0,1,579,0)"
       style="fill:#dddddd;fill-opacity:1;stroke-width:1.34621"><polygon
         fill="#dddddd"
         id="polygon10"
         points="143,50 50,50 33,32 50,15 143,15 160,33 "
         transform="matrix(-1,0,0,1,193,0)"
         style="fill:#de0004;fill-opacity:1;fill-rule:evenodd;stroke:#ffffff;stroke-width:5.38483" /><polygon
         fill="#dddddd"
         id="polygon11"
         points="143,143 143,50 160,33 178,50 178,143 161,160 "
         transform="matrix(-1,0,0,1,193,0)"
         style="fill:#dddddd;fill-opacity:1;fill-rule:evenodd;stroke:#ffffff;stroke-width:5.38483" /><polygon
         fill="#dddddd"
         id="polygon12"
         points="143,271 143,178 161,160 178,178 178,271 161,288 "
         transform="matrix(-1,0,0,1,193,0)"
         style="fill:#de0004;fill-opacity:1;fill-rule:evenodd;stroke:#ffffff;stroke-width:5.38483" /><polygon
         fill="#dddddd"
         id="polygon13"
         points="50,271 143,271 161,288 143,306 50,306 33,288 "
         transform="matrix(-1,0,0,1,193,0)"
         style="fill:#de0004;fill-opacity:1;fill-rule:evenodd;stroke:#ffffff;stroke-width:5.38483" /><polygon
         fill="#dddddd"
         id="polygon14"
         points="50,178 50,271 33,288 15,271 15,178 33,160 "
         transform="matrix(-1,0,0,1,193,0)"
         style="fill:#dddddd;fill-opacity:1;fill-rule:evenodd;stroke:#ffffff;stroke-width:5.38483" /><polygon
         fill="#dddddd"
         id="polygon15"
         points="50,50 50,143 33,160 15,143 15,50 33,32 "
         transform="matrix(-1,0,0,1,193,0)"
         style="fill:#dddddd;fill-opacity:1;fill-rule:evenodd;stroke:#ffffff;stroke-width:5.38483" /><polygon
         fill="#dddddd"
         id="polygon16"
         points="143,178 50,178 33,160 50,143 143,143 161,160 "
         transform="matrix(-1,0,0,1,193,0)"
         style="fill:#de0004;fill-opacity:1;fill-rule:evenodd;stroke:#ffffff;stroke-width:5.38483" /><polygon
         fill="#dddddd"
         id="polygon17"
         points="50,120 120,50 143,50 143,73 73,143 50,143 "
         transform="matrix(-1,0,0,1,193,0)"
         style="fill:#de0004;fill-opacity:1;fill-rule:evenodd;stroke:#ffffff;stroke-width:5.38483" /><polygon
         fill="#dddddd"
         id="polygon18"
         points="50,248 120,178 143,178 143,201 73,271 50,271 "
         transform="matrix(-1,0,0,1,193,0)"
         style="fill:#dddddd;fill-opacity:1;fill-rule:evenodd;stroke:#ffffff;stroke-width:5.38483" /></g></g><g
     id="g2"
     transform="matrix(0.91343981,0,0,0.91435178,200.23759,-5.715277)"
     style="stroke-width:1.09422"><polygon
       fill="#dddddd"
       id="a-5"
       points="143,15 160,33 143,50 50,50 33,32 50,15 "
       transform="matrix(-1,0,0,1,193,0)"
       style="fill:#de0004;fill-opacity:1;fill-rule:evenodd;stroke:#ffffff;stroke-width:4.37687" /><polygon
       fill="#dddddd"
       id="b-3"
       points="178,143 161,160 143,143 143,50 160,33 178,50 "
       transform="matrix(-1,0,0,1,193,0)"
       style="fill:#de0004;fill-opacity:1;fill-rule:evenodd;stroke:#ffffff;stroke-width:4.37687" /><polygon
       fill="#dddddd"
       id="c-5"
       points="178,271 161,288 143,271 143,178 161,160 178,178 "
       transform="matrix(-1,0,0,1,193,0)"
       style="fill:#de0004;fill-opacity:1;fill-rule:evenodd;stroke:#ffffff;stroke-width:4.37687" /><polygon
       fill="#dddddd"
       id="d-6"
       points="50,306 33,288 50,271 143,271 161,288 143,306 "
       transform="matrix(-1,0,0,1,193,0)"
       style="fill-rule:evenodd;stroke:#ffffff;stroke-width:4.37687" /><polygon
       fill="#dddddd"
       id="e-2"
       points="15,178 33,160 50,178 50,271 33,288 15,271 "
       transform="matrix(-1,0,0,1,193,0)"
       style="fill:#de0004;fill-opacity:1;fill-rule:evenodd;stroke:#ffffff;stroke-width:4.37687" /><polygon
       fill="#dddddd"
       id="f-9"
       points="15,50 33,32 50,50 50,143 33,160 15,143 "
       transform="matrix(-1,0,0,1,193,0)"
       style="fill:#de0004;fill-opacity:1;fill-rule:evenodd;stroke:#ffffff;stroke-width:4.37687" /><polygon
       fill="#dddddd"
       id="g-1"
       points="143,143 161,160 143,178 50,178 33,160 50,143 "
       transform="matrix(-1,0,0,1,193,0)"
       style="fill:#de0004;fill-opacity:1;fill-rule:evenodd;stroke:#ffffff;stroke-width:4.37687" /><polygon
       fill="#dddddd"
       id="h-2"
       points="73,143 50,143 50,120 120,50 143,50 143,73 "
       transform="matrix(-1,0,0,1,193,0)"
       style="fill-rule:evenodd;stroke:#ffffff;stroke-width:4.37687" /><polygon
       fill="#dddddd"
       id="i-7"
       points="73,271 50,271 50,248 120,178 143,178 143,201 "
       transform="matrix(-1,0,0,1,193,0)"
       style="fill:#de0004;fill-opacity:1;fill-rule:evenodd;stroke:#ffffff;stroke-width:4.37687" /></g></svg>
