<?xml version="1.0" encoding="UTF-8" standalone="no"?>
<!-- Created with Inkscape (http://www.inkscape.org/) -->

<svg
   width="3840"
   height="2160"
   viewBox="0 0 1016 571.5"
   version="1.1"
   id="svg5"
   inkscape:version="1.2.2 (b0a8486541, 2022-12-01)"
   sodipodi:docname="1sttry copy (1).svg"
   xml:space="preserve"
   xmlns:inkscape="http://www.inkscape.org/namespaces/inkscape"
   xmlns:sodipodi="http://sodipodi.sourceforge.net/DTD/sodipodi-0.dtd"
   xmlns="http://www.w3.org/2000/svg"
   xmlns:svg="http://www.w3.org/2000/svg"><sodipodi:namedview
     id="namedview7"
     pagecolor="#ad4ed9"
     bordercolor="#e56842"
     borderopacity="1"
     inkscape:showpageshadow="0"
     inkscape:pageopacity="1"
     inkscape:pagecheckerboard="1"
     inkscape:deskcolor="#505050"
     inkscape:document-units="px"
     showgrid="false"
     inkscape:zoom="0.14587717"
     inkscape:cx="3677.7516"
     inkscape:cy="1305.8932"
     inkscape:window-width="1536"
     inkscape:window-height="826"
     inkscape:window-x="0"
     inkscape:window-y="0"
     inkscape:window-maximized="1"
     inkscape:current-layer="layer3" /><defs
     id="defs2"><inkscape:path-effect
       effect="spiro"
       id="path-effect7240"
       is_visible="true"
       lpeversion="1" /><inkscape:path-effect
       effect="spiro"
       id="path-effect7119"
       is_visible="true"
       lpeversion="1" /><inkscape:path-effect
       effect="spiro"
       id="path-effect5544"
       is_visible="true"
       lpeversion="1" /><inkscape:path-effect
       effect="spiro"
       id="path-effect5538"
       is_visible="true"
       lpeversion="1" /><inkscape:path-effect
       effect="spiro"
       id="path-effect5472"
       is_visible="true"
       lpeversion="1" /><inkscape:path-effect
       effect="spiro"
       id="path-effect5466"
       is_visible="true"
       lpeversion="1" /><inkscape:path-effect
       effect="spiro"
       id="path-effect3011"
       is_visible="true"
       lpeversion="1" /><inkscape:path-effect
       effect="spiro"
       id="path-effect1281"
       is_visible="true"
       lpeversion="1" /><inkscape:path-effect
       effect="spiro"
       id="path-effect347"
       is_visible="true"
       lpeversion="1" /><inkscape:path-effect
       effect="spiro"
       id="path-effect347-3"
       is_visible="true"
       lpeversion="1" /></defs><g
     inkscape:label="Layer 1"
     inkscape:groupmode="layer"
     id="layer1"><rect
       style="fill:#505bdc;fill-opacity:1;stroke-width:1.50019;stroke-linecap:round;stroke-linejoin:bevel"
       id="rect12804"
       width="1016"
       height="571.5"
       x="0"
       y="0" /></g><g
     inkscape:groupmode="layer"
     id="layer2"
     inkscape:label="Layer 2"><path
       style="fill:#2b3078;fill-opacity:1;stroke-width:1.50019;stroke-linecap:round;stroke-linejoin:bevel"
       d="m 149.00583,604.06134 c 27.34338,-13.68459 52.82899,-32.41755 70.01414,-57.70785 8.59258,-12.64514 15.00944,-26.83858 18.18235,-41.79401 3.17291,-14.95542 3.05182,-30.67611 -0.98594,-45.42157 -4.20792,-15.3669 -12.53335,-29.35546 -22.44878,-41.82672 -9.91543,-12.47126 -21.43641,-23.55655 -32.86523,-34.65746 -11.42882,-11.1009 -22.84683,-22.30769 -32.51393,-34.97241 -9.6671,-12.66473 -17.58769,-26.92325 -21.18525,-42.44439 -5.70172,-24.59925 -0.0963,-50.78288 11.01278,-73.45931 11.1091,-22.67643 27.41539,-42.3553 44.12298,-61.28911 16.7076,-18.9338 34.06507,-37.48049 47.79121,-58.67543 C 243.8563,90.618129 253.9047,66.290242 254.17149,41.040261 254.43371,16.222608 245.02607,-8.2948383 229.54472,-27.693611 214.06337,-47.092384 192.75964,-61.482319 169.55358,-70.283638 123.14145,-87.886276 71.044252,-83.241072 23.059157,-70.537948 -70.004662,-45.901105 -155.48895,9.2852951 -212.49237,86.864017 c -57.00342,77.578723 -84.21457,177.489163 -69.80746,272.674683 14.40711,95.18553 71.50822,184.00276 154.51803,232.75951 41.5049,24.37838 88.898345,38.79387 136.9806438,41.04212 48.0822992,2.24824 96.7620062,-7.73619 139.8069862,-29.27899 z"
       id="path345"
       sodipodi:nodetypes="ssssss"
       inkscape:original-d="M 149.00583,604.06134 C 185.34329,828.92751 362.32995,472.81826 236.21638,459.13791 180.16499,453.05766 163.54118,356.53752 127.20319,305.23693 90.865055,253.93635 211.84899,129.10609 254.17149,41.040261 296.494,-47.025565 94.452385,-33.344948 23.059157,-70.537948 -48.334056,-107.73095 112.66829,379.19517 149.00583,604.06134 Z"
       inkscape:path-effect="#path-effect347" /><path
       style="opacity:1;fill:#8bb6ee;fill-opacity:1;stroke-width:1.50019;stroke-linecap:round;stroke-linejoin:bevel"
       d="m 1044.2443,570.48045 c -23.0455,18.17959 -47.91824,34.27711 -74.94023,45.74036 -27.022,11.46326 -56.28936,18.20792 -85.63191,17.42712 -29.34254,-0.78081 -58.75177,-9.32642 -82.71747,-26.27457 -23.9657,-16.94815 -42.14068,-42.54799 -48.12241,-71.28496 -4.59452,-22.07267 -2.05251,-44.9311 0.54043,-67.32728 2.59295,-22.39619 5.20424,-45.23625 0.74209,-67.33606 -6.22672,-30.83929 -25.57181,-57.24221 -45.52078,-81.57063 -19.94898,-24.32842 -41.39511,-48.31055 -53.23236,-77.46039 -13.17409,-32.44187 -13.24856,-69.4334 -3.34737,-103.01909 9.9012,-33.58568 29.34219,-63.88308 53.36519,-89.357133 51.95242,-55.0904908 126.57851,-88.136018 202.28901,-89.527551 75.7105,-1.391533 151.51761,28.901611 205.38461,82.121579 35.6897,35.261051 61.7337,79.975245 76.0219,128.068335 14.2882,48.09309 16.9119,99.46141 8.8619,148.98208 -16.1,99.04133 -74.9127,188.67226 -153.6926,250.81819 z"
       id="path7238"
       inkscape:path-effect="#path-effect7240"
       inkscape:original-d="m 1044.2443,570.48045 c 21.8023,218.88113 -263.19656,-6.60411 -291.41202,-34.39205 -28.21543,-27.78792 0.85527,-89.7753 1.28252,-134.66334 0.42725,-44.88807 -65.83516,-106.02042 -98.75314,-159.03102 -32.91797,-53.0106 33.34549,-128.25055 50.01782,-192.376223 16.67234,-64.125671 385.44372,21.664476 407.67362,-7.405972 22.2299,-29.070451 -90.6112,308.987485 -68.8088,527.868605 z"
       sodipodi:nodetypes="sssssss" /></g><g
     inkscape:groupmode="layer"
     id="layer3"
     inkscape:label="hasha"
     sodipodi:insensitive="true"><path
       id="path3882"
       style="fill:#ffffff;fill-opacity:1;stroke-width:1.50019;stroke-linecap:round;stroke-linejoin:bevel"
       d="m 519.60408,203.49758 c -0.27517,0.007 -0.61764,0.0799 -1.04128,0.1602 -0.73378,0.13917 -3.05809,0.33297 -5.16506,0.43046 -2.20702,0.10211 -4.26956,0.33418 -4.86586,0.54726 -0.67893,0.24254 -3.0842,0.45701 -6.98768,0.62373 -5.05056,0.21573 -6.05013,0.32464 -6.59908,0.71934 l -0.64699,0.4656 -0.0651,55.80642 -0.0651,55.80693 0.7121,0.0202 c 2.11846,0.0631 3.82025,-0.10266 4.6607,-0.45372 0.51983,-0.21721 2.24022,-0.48349 3.82302,-0.59221 1.95115,-0.13398 3.08605,-0.33387 3.52434,-0.62115 0.46691,-0.30588 1.53944,-0.46917 3.86229,-0.58756 1.79978,-0.0917 3.61533,-0.32633 4.12223,-0.53279 0.49821,-0.20283 1.6623,-0.42721 2.58744,-0.49971 0.92513,-0.0721 1.93191,-0.18144 2.23707,-0.24184 l 0.55449,-0.11111 0.0341,-22.84046 c 0.0187,-12.56227 0.10263,-23.22068 0.18603,-23.68486 0.0837,-0.46416 0.24251,-0.89949 0.35244,-0.96739 0.43817,-0.27082 1.81449,0.47674 2.30218,1.25006 0.28462,0.45122 0.92959,1.4024 1.43299,2.11408 0.5034,0.71168 0.91932,1.40078 0.91932,1.53117 0.002,0.1304 0.18201,0.42154 0.39946,0.64699 0.48782,0.5057 1.56938,2.04198 1.92805,2.73885 0.14654,0.28468 0.67379,1.04208 1.1715,1.68259 0.49772,0.64052 1.04505,1.43775 1.21647,1.77198 0.17143,0.33422 0.74966,1.08698 1.28519,1.67277 0.53542,0.58578 1.118,1.41361 1.2945,1.83968 0.17649,0.42609 0.47874,0.95447 0.67179,1.17409 0.92332,1.05062 1.8712,2.44596 1.8712,2.75487 0,0.18892 0.23266,0.46828 0.51728,0.62063 0.28474,0.15235 0.5178,0.40161 0.5178,0.55397 0,0.15236 0.29122,0.62304 0.64699,1.04593 0.3559,0.42289 0.64699,0.91657 0.64699,1.09709 0,0.18052 0.23318,0.53871 0.5178,0.79634 0.28475,0.25762 0.51728,0.59226 0.51728,0.74311 0,0.15086 0.23631,0.51131 0.52503,0.80098 0.66118,0.66331 2.04617,2.76964 2.05827,3.11712 0.003,0.14368 0.23783,0.40668 0.52245,0.58446 0.28474,0.17778 0.51728,0.49731 0.51728,0.71055 0,0.21324 0.29121,0.64093 0.64699,0.95033 0.35589,0.3094 0.64699,0.70807 0.64699,0.88574 0,0.17767 0.18508,0.50803 0.41135,0.73432 0.62649,0.6264 2.17661,2.94134 2.17661,3.25045 0,0.15023 0.17024,0.33868 0.37827,0.41858 0.20815,0.0799 0.4584,0.3962 0.555,0.70331 0.0971,0.30711 0.43395,0.90781 0.74828,1.3348 0.31422,0.42701 0.64717,0.95128 0.73897,1.16479 0.0922,0.2135 0.57469,0.91238 1.07229,1.55288 0.4976,0.64054 1.0223,1.39745 1.16582,1.68207 0.1434,0.28474 0.6681,1.04154 1.16582,1.68206 0.49772,0.64051 1.04859,1.45548 1.22473,1.81126 0.17601,0.35589 0.47216,0.76582 0.65784,0.91054 0.18556,0.14485 0.47818,0.49937 0.65009,0.78858 0.17203,0.28909 0.5453,0.91609 0.82992,1.39268 0.28474,0.47658 0.7219,1.05013 0.971,1.27434 0.24898,0.22422 0.45269,0.53088 0.45269,0.68213 0,0.15125 0.32004,0.64869 0.71158,1.10485 l 0.005,5.1e-4 c 0.8175,0.9528 1.6324,1.0644 2.54351,0.34778 0.34079,-0.26806 1.28253,-0.57031 2.0929,-0.67179 0.81037,-0.10123 1.71442,-0.34109 2.00918,-0.5333 0.29477,-0.1922 1.11636,-0.47879 1.82573,-0.63717 0.70938,-0.15826 1.48313,-0.46329 1.71979,-0.67748 0.23678,-0.21419 1.11242,-0.45447 1.94562,-0.53537 0.83308,-0.0804 1.86376,-0.3501 2.29081,-0.59944 0.42706,-0.24934 1.23029,-0.53394 1.78491,-0.63304 0.55462,-0.0988 1.29742,-0.36953 1.65054,-0.601 0.35323,-0.23134 1.33242,-0.50241 2.17661,-0.60151 0.8442,-0.0996 1.74046,-0.36692 1.99161,-0.59428 0.25128,-0.22724 1.03039,-0.48766 1.73168,-0.57826 0.70128,-0.0906 1.50804,-0.36956 1.79266,-0.62011 0.28474,-0.25055 0.88344,-0.53316 1.33066,-0.62736 0.67991,-0.14327 0.78935,-0.26569 0.66818,-0.73949 -0.08,-0.31241 -0.35862,-0.71996 -0.61908,-0.90588 -0.26058,-0.18605 -0.47388,-0.48051 -0.47388,-0.65423 0,-0.17384 -0.23305,-0.51585 -0.51779,-0.75964 -0.28462,-0.24367 -0.51728,-0.60257 -0.51728,-0.79789 0,-0.19533 -0.3511,-0.80782 -0.78032,-1.36115 -0.42923,-0.55333 -0.98245,-1.27416 -1.22938,-1.60146 -0.24681,-0.32731 -0.76924,-0.98293 -1.16065,-1.45727 -0.39142,-0.47433 -0.71159,-0.98895 -0.71159,-1.14308 0,-0.15412 -0.23306,-0.40473 -0.5178,-0.55708 -0.28462,-0.15235 -0.51728,-0.43033 -0.51728,-0.61805 0,-0.18771 -0.26214,-0.63419 -0.58239,-0.99218 -0.32026,-0.358 -0.78273,-0.98676 -1.02784,-1.39682 -0.85012,-1.42296 -1.10963,-1.77428 -1.56012,-2.1146 -0.2491,-0.18816 -0.45268,-0.51408 -0.45268,-0.72398 0,-0.2099 -0.17983,-0.45065 -0.39946,-0.53485 -0.2195,-0.0843 -0.62958,-0.60472 -0.91106,-1.15652 -0.28148,-0.55178 -0.61789,-1.00304 -0.74775,-1.00304 -0.12987,0 -0.31865,-0.26214 -0.42013,-0.5824 -0.10123,-0.32025 -0.40036,-0.73435 -0.66456,-0.92035 -0.26421,-0.18599 -0.48008,-0.486 -0.48008,-0.66663 0,-0.18062 -0.29109,-0.60209 -0.64699,-0.93638 -0.35576,-0.3343 -0.64698,-0.72886 -0.64698,-0.87695 0,-0.14811 -0.26214,-0.54142 -0.5824,-0.87436 -0.32025,-0.33294 -0.82816,-0.86152 -1.12861,-1.17409 -0.30057,-0.31258 -0.6241,-0.81473 -0.7183,-1.11621 -0.0946,-0.30149 -0.40218,-0.75646 -0.68317,-1.01079 -0.28112,-0.25434 -0.51056,-0.5987 -0.51056,-0.76533 0,-0.16664 -0.29161,-0.57625 -0.6475,-0.91054 -0.35578,-0.3343 -0.64648,-0.75 -0.64648,-0.92346 0,-0.17347 -0.17134,-0.38075 -0.38034,-0.46095 -0.209,-0.0802 -0.54043,-0.5296 -0.73638,-0.99839 -0.19594,-0.46878 -0.54888,-1.01234 -0.78445,-1.20768 -0.23558,-0.19536 -0.4284,-0.47284 -0.4284,-0.61701 0,-0.14417 -0.26162,-0.523 -0.58188,-0.84181 -0.32026,-0.31882 -0.87348,-1.01008 -1.22938,-1.53583 -0.35577,-0.52574 -0.90912,-1.28454 -1.22938,-1.68671 -0.32026,-0.40215 -0.58239,-0.86014 -0.58239,-1.01751 0,-0.15738 -0.1148,-0.28629 -0.25529,-0.28629 -0.24283,0 -1.23187,-1.34062 -2.07377,-2.8112 -0.21346,-0.37293 -0.59168,-0.83133 -0.84078,-1.01854 -0.2491,-0.18721 -0.4532,-0.4448 -0.4532,-0.57258 0,-0.12781 -0.26213,-0.51392 -0.58239,-0.85834 -0.32026,-0.3444 -0.92632,-1.19426 -1.34721,-1.88826 -0.42089,-0.69398 -0.97424,-1.41392 -1.22938,-1.5999 -0.25527,-0.18599 -0.46871,-0.47714 -0.46871,-0.64699 -0.002,-0.16985 -0.2935,-0.5831 -0.64698,-0.91829 -0.35336,-0.3352 -0.64234,-0.73502 -0.64234,-0.88883 0,-0.15381 -0.25649,-0.55309 -0.56999,-0.88677 -0.69236,-0.73162 -0.69589,-2.32016 -0.0119,-2.93264 0.43636,-0.3907 0.57084,-0.57531 1.59577,-2.18746 0.57516,-0.90478 1.18366,-1.70124 2.08669,-2.73162 0.67567,-0.77076 1.04159,-1.24145 2.30426,-2.96158 0.41799,-0.56933 1.06069,-1.33068 1.42782,-1.69188 0.36713,-0.3612 0.66714,-0.79363 0.66714,-0.96118 0,-0.16755 0.23306,-0.42953 0.5178,-0.58188 0.28462,-0.15235 0.51779,-0.41449 0.51779,-0.58239 0,-0.16791 0.22969,-0.54232 0.51057,-0.83199 1.04703,-1.07979 2.07739,-2.41547 2.07739,-2.69338 0,-0.15793 0.23254,-0.43304 0.51728,-0.61082 0.28462,-0.17777 0.5178,-0.46892 0.5178,-0.64698 0,-0.17807 0.23266,-0.4692 0.51728,-0.64699 0.28474,-0.17778 0.5178,-0.44463 0.5178,-0.59325 0,-0.26939 0.90043,-1.45043 2.00556,-2.63033 0.32026,-0.34191 0.58239,-0.69948 0.58239,-0.79478 0,-0.0953 0.2356,-0.41003 0.52349,-0.6997 0.82159,-0.8268 2.06447,-2.51245 2.06447,-2.79983 0,-0.14336 0.24169,-0.50547 0.53743,-0.80512 1.15587,-1.1712 2.8267,-3.04741 2.8267,-3.17397 0,-0.25524 1.68832,-2.51314 2.58796,-3.46128 0.49821,-0.52503 1.02248,-1.12801 1.16479,-1.33997 0.14231,-0.21197 0.56326,-0.84122 0.93534,-1.39837 0.37209,-0.55714 0.86689,-1.1715 1.09968,-1.36477 0.23292,-0.19325 0.42323,-0.46923 0.42323,-0.6134 0,-0.14417 0.26213,-0.52295 0.58239,-0.84181 0.69065,-0.68766 1.50381,-1.68424 2.53163,-3.10265 1.36729,-1.88705 1.66883,-2.26726 2.25619,-2.84789 0.32026,-0.3166 0.58239,-0.66193 0.58239,-0.7674 0,-0.10546 0.29071,-0.53777 0.64648,-0.96066 1.27197,-1.51168 0.55149,-2.25868 -2.36937,-2.45515 -1.41477,-0.0952 -2.24503,-0.28724 -2.73937,-0.63459 -0.42198,-0.29639 -1.49625,-0.59818 -2.65151,-0.74465 -1.06842,-0.13546 -2.20521,-0.4105 -2.52595,-0.61082 -0.32062,-0.20032 -1.43894,-0.43028 -2.48512,-0.51108 -1.12785,-0.0871 -2.17405,-0.32497 -2.5709,-0.58497 -0.38102,-0.24969 -1.5492,-0.5275 -2.71353,-0.64493 -1.12447,-0.11335 -2.30727,-0.3778 -2.62826,-0.58807 -0.60862,-0.39877 -5.13635,-0.95616 -6.16707,-0.75913 -0.32617,0.0624 -0.79088,0.42517 -1.03249,0.80615 -0.97454,1.5367 -1.12619,1.75823 -1.74822,2.5554 -0.35589,0.45602 -0.87965,1.14211 -1.16427,1.52497 -0.28462,0.38286 -0.77942,0.95515 -1.09967,1.27176 -0.32026,0.31659 -0.5824,0.65994 -0.5824,0.76274 0,0.3074 -1.64709,2.57384 -2.13527,2.93833 -0.2491,0.18598 -0.45268,0.50236 -0.45268,0.70279 0,0.20043 -0.23318,0.48896 -0.5178,0.64131 -0.28462,0.15236 -0.51728,0.40294 -0.51728,0.55707 0,0.27787 -1.05174,1.65766 -2.06241,2.70526 -0.28909,0.29966 -0.52555,0.66375 -0.52555,0.80926 0,0.14552 -0.18179,0.4149 -0.40359,0.59893 -0.22168,0.184 -0.55797,0.69337 -0.74776,1.13171 -0.18991,0.43834 -0.79492,1.29222 -1.3441,1.89756 -0.54931,0.60534 -1.34804,1.58743 -1.77509,2.18229 -0.42705,0.59485 -1.4885,1.96787 -2.35903,3.05098 -0.87064,1.08312 -1.65918,2.21076 -1.75338,2.50631 -0.0939,0.29556 -0.40049,0.74559 -0.68161,0.99994 -0.28099,0.25433 -0.51108,0.62265 -0.51108,0.81855 0,0.19591 -0.16926,0.42135 -0.3762,0.50075 -0.20694,0.0794 -0.60801,0.51233 -0.89142,0.96221 -0.28341,0.44989 -0.86936,1.28377 -1.30173,1.85312 -0.43237,0.56934 -0.92333,1.29722 -1.09089,1.61747 -0.16768,0.32026 -0.46049,0.58239 -0.65112,0.58239 -0.19063,0 -0.34675,0.11657 -0.34675,0.2589 0,0.14234 -0.22672,0.48564 -0.50385,0.76275 -0.27701,0.2771 -0.69709,0.87748 -0.93327,1.33428 -0.44759,0.86555 -0.59986,1.07681 -1.66864,2.31769 -0.35577,0.41315 -0.93807,1.16543 -1.29397,1.67225 -0.60813,0.86625 -1.49698,2.0745 -2.52698,3.4339 -0.2468,0.32582 -0.7112,0.89603 -1.03146,1.2671 -0.32026,0.37105 -0.58188,0.774 -0.58188,0.89556 0,0.41125 -1.03196,1.25625 -1.53427,1.25625 -0.27447,0 -0.68227,-0.18302 -0.90589,-0.40669 -0.36126,-0.36141 -0.40497,-2.18362 -0.38447,-16.36903 0.0123,-8.77908 0.10866,-19.39706 0.21497,-23.59598 0.18307,-7.26709 0.25238,-8.48394 -0.93999,-8.45478 z m -60.65263,28.02 c -0.11263,7.1e-4 -0.21847,0.0102 -0.31678,0.0289 -0.3658,0.0699 -2.66431,2.16692 -5.63893,5.1449 l -5.0214,5.02709 0.0388,1.28777 c 0.0295,0.97231 0.20359,1.48355 0.71158,2.08721 0.36991,0.43971 0.67283,0.94706 0.67283,1.12758 0,0.18052 0.22867,0.53529 0.50798,0.78807 0.2793,0.25277 0.63395,0.84265 0.78858,1.31103 0.15464,0.46837 0.45023,0.91651 0.65681,0.99581 0.2067,0.0793 0.37569,0.33491 0.37569,0.56792 0,0.23301 0.29122,0.76928 0.64698,1.19217 0.3559,0.42288 0.64699,0.98908 0.64699,1.25781 0,0.26875 0.22359,0.6083 0.49661,0.75447 0.27314,0.14616 0.57346,0.61657 0.66766,1.04594 0.0944,0.42939 0.39504,0.90028 0.66818,1.04644 0.27302,0.14617 0.50126,0.40741 0.50126,0.58033 0.005,0.34135 1.30172,2.40264 1.90841,3.03392 0.20622,0.21468 0.45289,0.70078 0.54829,1.08056 0.0953,0.37979 0.39585,0.89186 0.66766,1.13791 0.27194,0.24603 0.49403,0.65762 0.49403,0.91468 0,0.25707 0.21697,0.67605 0.48214,0.93069 0.77654,0.74564 0.82512,1.76757 0.12867,2.71146 -0.33597,0.45537 -0.61081,0.96455 -0.61081,1.1312 0,0.16665 -0.21756,0.58089 -0.4837,0.92035 -0.26614,0.33945 -0.5639,0.98572 -0.663,1.43661 -0.0984,0.45089 -0.40466,1.08021 -0.68058,1.39836 -0.27592,0.31815 -0.50232,0.88093 -0.50281,1.25057 -4.8e-4,0.36964 -0.23214,1.05114 -0.5147,1.51464 -0.28269,0.46351 -0.58653,1.29938 -0.67593,1.85725 -0.12081,0.75514 -0.40989,1.2136 -1.13171,1.79369 -0.85374,0.68607 -1.24437,0.80106 -3.26957,0.96377 -1.26496,0.10163 -2.54504,0.34383 -2.84427,0.53846 -0.29924,0.19463 -1.57296,0.47976 -2.83032,0.63356 -1.25735,0.15379 -2.55142,0.45354 -2.87579,0.66611 -0.34937,0.22894 -1.46365,0.43748 -2.73369,0.51108 -1.3755,0.0796 -2.46886,0.29489 -3.04994,0.60099 -0.52176,0.27482 -1.78857,0.55367 -2.98793,0.65733 -3.06692,0.26523 -2.97024,-0.0263 -2.93884,8.87749 0.0143,3.9383 0.10657,7.45194 0.20567,7.80779 0.15343,0.55261 0.37692,0.67093 1.53014,0.81287 0.74247,0.0914 1.6228,0.34519 1.95647,0.56379 0.33354,0.2186 1.42545,0.51088 2.42621,0.64958 1.00088,0.13869 2.09494,0.42449 2.43138,0.6351 0.33644,0.21063 1.45816,0.45599 2.49287,0.54519 1.10405,0.0952 2.27906,0.37513 2.84323,0.67747 0.52877,0.28341 1.44045,0.51522 2.02624,0.51522 1.15636,0 2.69544,0.44296 2.69544,0.77566 0,0.11397 0.83403,0.29082 1.85363,0.39326 1.99778,0.20063 3.06338,0.86807 3.06338,1.91874 0,0.2877 0.23211,0.90442 0.51625,1.37046 0.28426,0.46602 0.52607,1.19663 0.52607,1.62368 0.005,0.42705 0.29533,1.35849 0.64543,2.07016 0.3501,0.71166 0.63872,1.53831 0.63872,1.83658 10e-4,0.29815 0.22406,0.74214 0.49455,0.98702 0.2706,0.24487 0.57147,0.86799 0.66817,1.38492 0.097,0.51681 0.39362,1.21653 0.6594,1.55443 0.64861,0.8245 0.89618,2.64189 0.51624,3.79305 -0.16792,0.50884 -0.41605,0.92501 -0.55087,0.92501 -0.13482,0 -0.34674,0.26833 -0.47129,0.59583 -0.324,0.85217 -1.82638,3.02772 -2.09082,3.02772 -0.12262,0 -0.30235,0.26162 -0.39895,0.58188 -0.24596,0.81363 -1.90511,3.30005 -2.20193,3.30005 -0.13506,0 -0.24495,0.2239 -0.24495,0.49765 0,0.27375 -0.29109,0.84376 -0.64699,1.26659 -0.35576,0.42294 -0.64698,0.89656 -0.64698,1.05265 0,0.1562 -0.23306,0.42948 -0.5178,0.60719 -0.28462,0.17783 -0.51728,0.51906 -0.51728,0.75861 0,0.23956 -0.29122,0.78176 -0.64699,1.20458 -0.3559,0.42295 -0.64699,0.89093 -0.64699,1.04025 0,0.14932 -0.21994,0.42569 -0.48886,0.61391 -0.26879,0.18833 -0.67041,0.77703 -0.89245,1.30845 -0.22205,0.53143 -0.51693,0.96635 -0.65526,0.96635 -0.36398,0 -0.6214,1.42217 -0.4222,2.32906 0.094,0.4279 0.33916,0.77669 0.54622,0.77669 0.2067,0 0.45167,0.20359 0.54467,0.45269 0.18157,0.48697 1.86207,2.13527 2.17713,2.13527 0.10486,0 0.26269,0.22699 0.35089,0.50436 0.0881,0.27737 0.38112,0.57411 0.65112,0.65991 0.27012,0.0858 0.55894,0.37049 0.64234,0.63252 0.0832,0.26203 0.38039,0.53557 0.66042,0.60927 0.27991,0.0732 0.50901,0.30032 0.50901,0.50436 0,0.20392 0.2911,0.50347 0.64699,0.66559 0.35578,0.16213 0.64699,0.47185 0.64699,0.68833 0,0.21661 0.12778,0.39377 0.28422,0.39377 0.15633,0 0.78901,0.53429 1.4056,1.18701 1.45077,1.53594 2.65678,1.76977 3.9889,0.7736 0.49024,-0.36653 1.10542,-0.66663 1.36685,-0.66663 0.26154,0 0.54465,-0.18155 0.63045,-0.40359 0.0853,-0.22216 0.60564,-0.58413 1.15652,-0.8046 0.55087,-0.22035 1.00149,-0.50284 1.00149,-0.62787 0,-0.12491 0.37872,-0.40372 0.84129,-0.6196 0.46269,-0.21588 1.36516,-0.74128 2.00556,-1.16737 0.64051,-0.4262 1.5352,-0.94837 1.98799,-1.16014 0.4529,-0.21178 0.89746,-0.50498 0.98806,-0.65164 0.0906,-0.14666 0.56423,-0.43365 1.05265,-0.63769 0.48842,-0.20416 0.88831,-0.48864 0.88831,-0.63251 0,-0.14388 0.46584,-0.40097 1.03508,-0.57155 0.56936,-0.17058 1.03508,-0.38932 1.03508,-0.48472 0,-0.2148 2.44056,-1.81384 2.76831,-1.81384 0.13035,0 0.63137,-0.2911 1.11363,-0.64699 1.05088,-0.77534 2.08315,-0.83048 2.70422,-0.14418 0.25031,0.27665 0.82135,0.58069 1.26918,0.67489 0.44783,0.0946 1.04748,0.37681 1.33221,0.62736 0.28462,0.25067 0.86693,0.53827 1.29398,0.63975 0.42705,0.10087 0.95957,0.34888 1.18391,0.55087 0.22433,0.2021 0.95641,0.46952 1.62677,0.5948 0.67035,0.12527 1.41852,0.40421 1.66243,0.6196 0.24402,0.2154 0.96766,0.4766 1.60818,0.57929 1.69031,0.27242 1.97119,0.4944 2.30631,1.82521 0.16574,0.65839 0.46886,1.45291 0.67387,1.76579 0.20801,0.31735 0.45038,1.59408 0.54828,2.88767 0.0994,1.31437 0.3404,2.57267 0.55604,2.90525 0.20923,0.32268 0.48229,1.59487 0.6072,2.82722 0.13845,1.36499 0.38165,2.41147 0.62218,2.67736 0.25635,0.28317 0.47492,1.33479 0.62219,2.99516 0.12479,1.40751 0.41178,2.90827 0.63768,3.3352 0.22579,0.42705 0.41165,1.1045 0.41238,1.50533 9.6e-4,0.40055 0.12206,0.95394 0.26924,1.22939 0.25585,0.47726 0.62359,0.49971 8.10699,0.49971 h 7.83932 l 0.61598,-0.65578 c 0.486,-0.5173 0.65515,-1.0679 0.80254,-2.61121 0.10969,-1.14778 0.34864,-2.13521 0.57877,-2.38951 0.21564,-0.23823 0.5033,-1.32552 0.63872,-2.41639 0.13543,-1.091 0.4329,-2.25081 0.66146,-2.57711 0.22845,-0.3263 0.42168,-1.06233 0.42168,-1.63556 0.008,-1.38432 0.39969,-3.0128 0.78083,-3.24838 0.16877,-0.10437 0.40097,-1.1065 0.51573,-2.22674 0.2189,-2.13549 0.42944,-2.94245 0.76637,-2.94245 0.1109,0 0.28175,-0.53895 0.38085,-1.19734 0.2247,-1.49836 1.00267,-2.30782 2.45308,-2.55282 0.60717,-0.10269 1.30748,-0.3897 1.55598,-0.6382 0.2485,-0.2485 1.05106,-0.53101 1.78387,-0.62891 0.73282,-0.0972 1.33273,-0.28431 1.33273,-0.41599 0,-0.1318 0.4948,-0.38067 1.09968,-0.55294 0.605,-0.17228 1.33285,-0.51349 1.61747,-0.75861 0.28474,-0.24512 0.88387,-0.52333 1.3317,-0.61753 0.44783,-0.0946 1.01938,-0.39825 1.26969,-0.6749 0.75021,-0.82897 2.27474,-0.66639 3.90622,0.41652 0.76205,0.50581 1.38545,1.03008 1.38545,1.16478 0,0.13506 0.19283,0.24495 0.4284,0.24495 0.23569,0 0.78892,0.2739 1.22938,0.60926 0.44046,0.33536 1.06312,0.69279 1.38338,0.79427 0.32026,0.10124 0.58239,0.29084 0.58239,0.42168 0,0.13083 0.37821,0.39634 0.84078,0.58963 0.46257,0.19341 1.00096,0.54423 1.19631,0.7798 0.19534,0.23544 0.50902,0.42839 0.69711,0.42839 0.18798,0 0.49402,0.21575 0.68006,0.48008 0.18592,0.2642 0.60378,0.56445 0.92863,0.66714 0.32485,0.10256 0.89502,0.46912 1.2671,0.8139 0.37208,0.34478 0.82,0.62684 0.99529,0.62684 0.17529,0 0.46921,0.18139 0.65319,0.40307 0.18411,0.22168 0.72239,0.56527 1.19631,0.76327 0.47392,0.198 0.86145,0.4885 0.86145,0.64543 0,0.15705 0.34964,0.40721 0.77669,0.55604 0.42705,0.14884 0.77618,0.37642 0.77618,0.50591 0,0.12963 0.45656,0.41833 1.01493,0.64183 0.55836,0.22337 1.07922,0.57216 1.15652,0.77463 0.18785,0.49014 1.08874,0.46941 1.50637,-0.0341 0.1835,-0.22132 0.72911,-0.77415 1.21233,-1.22887 3.24497,-3.05422 8.82287,-8.82105 8.96482,-9.26816 0.26843,-0.84589 -0.11222,-2.71225 -0.65319,-3.20188 -0.27037,-0.24475 -0.56691,-0.78995 -0.65991,-1.21181 -0.0927,-0.42186 -0.32669,-0.82805 -0.51986,-0.90175 -0.19317,-0.0741 -0.47788,-0.51814 -0.63252,-0.98651 -0.15463,-0.46835 -0.50928,-1.05818 -0.78858,-1.31103 -0.27931,-0.25273 -0.50798,-0.59802 -0.50798,-0.76739 0,-0.16937 -0.22616,-0.51295 -0.50281,-0.76326 -0.27665,-0.25031 -0.57655,-0.79168 -0.66715,-1.20303 -0.0904,-0.41147 -0.31296,-0.83609 -0.49454,-0.94361 -0.18157,-0.10764 -0.47548,-0.47266 -0.65319,-0.8108 -0.29766,-0.56658 -0.43244,-0.60182 -1.70997,-0.45166 -1.29191,0.15186 -1.44933,0.10795 -2.3027,-0.6413 -0.50377,-0.44239 -0.91571,-0.94075 -0.91571,-1.10794 0,-0.16708 -0.2041,-0.48738 -0.4532,-0.71159 -0.40482,-0.36436 -0.71006,-0.81798 -1.79938,-2.67115 -0.17142,-0.29163 -0.49593,-0.76274 -0.72088,-1.04748 -1.43578,-1.81705 -1.94355,-2.57306 -1.94355,-2.89078 0,-0.19837 -0.16442,-0.42293 -0.36484,-0.50023 -0.20053,-0.0768 -0.50588,-0.48084 -0.67851,-0.89762 -0.17264,-0.41678 -0.41363,-0.75809 -0.53588,-0.75809 -0.12214,0 -0.48661,-0.48071 -0.80977,-1.06867 -0.32316,-0.58809 -0.73933,-1.34542 -0.92501,-1.68259 -0.42101,-0.76447 -1.85446,-0.88793 -1.86656,-0.16019 -0.007,0.64352 -1.82965,3.40198 -3.0365,4.59506 -0.32026,0.31663 -0.58188,0.66625 -0.58188,0.77618 0,0.2758 -2.68394,3.31785 -4.32738,4.90513 -0.74308,0.71771 -2.18256,1.88714 -3.19877,2.59881 -1.01623,0.71167 -2.14574,1.55893 -2.51045,1.88257 -0.36472,0.32376 -0.93418,0.65619 -1.26555,0.73949 -0.33137,0.0832 -0.60255,0.25927 -0.60255,0.39119 0,0.13204 -0.51104,0.45926 -1.13585,0.72709 -0.62481,0.26782 -1.20888,0.60409 -1.29708,0.74724 -0.0884,0.14316 -0.53791,0.34042 -0.9989,0.43822 -0.461,0.098 -1.03395,0.35063 -1.27279,0.5612 -0.23895,0.21044 -0.93577,0.49532 -1.54874,0.63304 -0.61297,0.13772 -1.30976,0.42697 -1.54823,0.64285 -0.23848,0.21576 -1.08264,0.48056 -1.87585,0.58808 -0.79333,0.10764 -1.65476,0.38813 -1.91462,0.62322 -0.34333,0.31071 -1.21101,0.47472 -3.17448,0.60048 -1.48604,0.0951 -3.1536,0.32997 -3.7052,0.52193 -1.21918,0.42465 -6.80879,0.46343 -8.31319,0.0579 -0.56936,-0.15342 -2.31628,-0.39341 -3.88193,-0.5333 -1.8934,-0.16913 -3.10672,-0.40933 -3.62304,-0.71727 -0.42705,-0.25466 -1.28053,-0.52577 -1.89652,-0.60307 -0.616,-0.0771 -1.32365,-0.32453 -1.57251,-0.54983 -0.24898,-0.22519 -1.0031,-0.51205 -1.67587,-0.63769 -0.67277,-0.12576 -1.36226,-0.39807 -1.53272,-0.60513 -0.17046,-0.20719 -0.80474,-0.51702 -1.40974,-0.68833 -0.60488,-0.17142 -1.10019,-0.41438 -1.10019,-0.54002 0,-0.12564 -0.41574,-0.36562 -0.92397,-0.5333 -0.50811,-0.16768 -0.98239,-0.45709 -1.05369,-0.64337 -0.0714,-0.1864 -0.43204,-0.41446 -0.80098,-0.50746 -0.67845,-0.17021 -1.64929,-0.81983 -2.81688,-1.88413 -0.35131,-0.32026 -0.70864,-0.58187 -0.79324,-0.58187 -0.63338,0 -7.82498,-7.05935 -7.83828,-7.69359 -0.004,-0.17468 -0.29742,-0.50788 -0.65319,-0.74104 -0.3559,-0.23315 -0.64699,-0.58903 -0.64699,-0.79065 0,-0.20163 -0.17388,-0.4338 -0.38602,-0.5147 -0.21226,-0.0814 -0.5217,-0.6019 -0.68781,-1.15652 -0.16623,-0.55462 -0.39769,-1.0082 -0.51367,-1.0082 -0.11621,0 -0.40436,-0.37861 -0.64078,-0.8413 -0.23642,-0.46256 -0.58412,-0.93065 -0.77257,-1.04179 -0.18858,-0.11054 -0.42049,-0.63481 -0.51469,-1.16479 -0.0945,-0.52985 -0.37472,-1.19643 -0.62322,-1.48105 -0.24838,-0.28462 -0.53483,-0.86692 -0.6351,-1.29397 -0.101,-0.42705 -0.35906,-0.97124 -0.57361,-1.20923 -0.21443,-0.23811 -0.4529,-0.93694 -0.5302,-1.55288 -0.0771,-0.61598 -0.36179,-1.48804 -0.63252,-1.93838 -0.27073,-0.45033 -0.59403,-1.55691 -0.71882,-2.45877 -0.12479,-0.90185 -0.41953,-2.15565 -0.65474,-2.78639 -0.62167,-1.66712 -0.49354,-14.81263 0.15399,-15.8042 0.23243,-0.35584 0.48424,-1.29758 0.55914,-2.0929 0.0753,-0.7953 0.38018,-1.89985 0.67748,-2.45463 0.29743,-0.55477 0.54054,-1.3735 0.54054,-1.81901 0,-0.4455 0.23391,-1.10722 0.51986,-1.47071 0.28583,-0.3635 0.59325,-1.04877 0.68265,-1.52291 0.0895,-0.47414 0.3199,-1.04434 0.51211,-1.2671 0.1922,-0.22274 0.48584,-0.80505 0.65267,-1.29398 0.16696,-0.48894 0.51789,-1.16692 0.7798,-1.50637 0.26191,-0.33945 0.47594,-0.76926 0.47594,-0.95549 0,-0.18624 0.21638,-0.49098 0.48059,-0.67697 0.26432,-0.186 0.57254,-0.6291 0.68368,-0.98495 0.22107,-0.70482 0.96238,-1.77214 1.87689,-2.70216 0.32026,-0.32567 0.58188,-0.68324 0.58188,-0.79427 0,-0.11103 0.23614,-0.44707 0.52451,-0.74672 3.47403,-3.60923 4.99227,-5.10929 6.05234,-5.97948 0.69355,-0.56933 1.4743,-1.23516 1.73427,-1.48001 0.2601,-0.24484 1.29121,-0.87421 2.29185,-1.39837 1.00063,-0.52417 1.81952,-1.04281 1.81952,-1.15238 0,-0.10956 0.43677,-0.33735 0.97049,-0.50643 0.53372,-0.16908 1.08655,-0.45022 1.22886,-0.62477 0.14243,-0.17455 0.52103,-0.45676 0.84129,-0.62735 0.56899,-0.30343 0.5824,-0.40821 0.5824,-4.80901 0,-5.62289 -0.0851,-5.89859 -1.48208,-4.79971 -0.36193,0.28468 -0.91811,0.5178 -1.23559,0.5178 -0.31736,0 -0.86369,0.22541 -1.21439,0.50126 -0.3507,0.27585 -0.97791,0.58295 -1.39372,0.68265 -0.41582,0.0996 -0.88083,0.27868 -1.03352,0.39791 -0.42053,0.32827 -3.19898,-0.54897 -3.49592,-1.10381 -0.14073,-0.26296 -0.42022,-0.47801 -0.62063,-0.47801 -0.20042,0 -0.51624,-0.21634 -0.70228,-0.48059 -0.18593,-0.26425 -0.62917,-0.57163 -0.98495,-0.68265 -0.57649,-0.17991 -1.38599,-0.72187 -2.59623,-1.73891 -0.21781,-0.18312 -0.8292,-0.53507 -1.35857,-0.78186 -0.52937,-0.24678 -0.96273,-0.56695 -0.96273,-0.71159 0,-0.14459 -0.16856,-0.26303 -0.37466,-0.26303 -0.20621,0 -0.68888,-0.29116 -1.0728,-0.64699 -0.38392,-0.35584 -0.85016,-0.64699 -1.0356,-0.64699 -0.18544,0 -0.65116,-0.29115 -1.03508,-0.64699 -0.38391,-0.35584 -0.84118,-0.64699 -1.01647,-0.64699 -0.17529,0 -0.47851,-0.19283 -0.67386,-0.42839 -0.19534,-0.23555 -0.73883,-0.58849 -1.20768,-0.78445 -0.46873,-0.19595 -0.91869,-0.52738 -0.99839,-0.73639 -0.0802,-0.20901 -0.29225,-0.37982 -0.47129,-0.37982 -0.17916,0 -0.65801,-0.26214 -1.06453,-0.5824 -0.82979,-0.65358 -1.92823,-1.07728 -2.71663,-1.07228 z" /></g></svg>
