<?xml version="1.0" encoding="UTF-8" standalone="no"?>
<!-- Created with Inkscape (http://www.inkscape.org/) -->

<svg
   width="3840"
   height="2160"
   viewBox="0 0 1016 571.5"
   version="1.1"
   id="svg5"
   inkscape:version="1.4.2 (ebf0e940d0, 2025-05-08)"
   sodipodi:docname="1sttryvivaldi.svg"
   xml:space="preserve"
   xmlns:inkscape="http://www.inkscape.org/namespaces/inkscape"
   xmlns:sodipodi="http://sodipodi.sourceforge.net/DTD/sodipodi-0.dtd"
   xmlns="http://www.w3.org/2000/svg"
   xmlns:svg="http://www.w3.org/2000/svg"><sodipodi:namedview
     id="namedview7"
     pagecolor="#ad4ed9"
     bordercolor="#e56842"
     borderopacity="1"
     inkscape:showpageshadow="0"
     inkscape:pageopacity="1"
     inkscape:pagecheckerboard="1"
     inkscape:deskcolor="#505050"
     inkscape:document-units="px"
     showgrid="false"
     inkscape:zoom="0.14587717"
     inkscape:cx="1823.4519"
     inkscape:cy="1532.1109"
     inkscape:window-width="1536"
     inkscape:window-height="828"
     inkscape:window-x="0"
     inkscape:window-y="0"
     inkscape:window-maximized="1"
     inkscape:current-layer="layer3" /><defs
     id="defs2"><inkscape:path-effect
       effect="spiro"
       id="path-effect7240"
       is_visible="true"
       lpeversion="1" /><inkscape:path-effect
       effect="spiro"
       id="path-effect7119"
       is_visible="true"
       lpeversion="1" /><inkscape:path-effect
       effect="spiro"
       id="path-effect5544"
       is_visible="true"
       lpeversion="1" /><inkscape:path-effect
       effect="spiro"
       id="path-effect5538"
       is_visible="true"
       lpeversion="1" /><inkscape:path-effect
       effect="spiro"
       id="path-effect5472"
       is_visible="true"
       lpeversion="1" /><inkscape:path-effect
       effect="spiro"
       id="path-effect5466"
       is_visible="true"
       lpeversion="1" /><inkscape:path-effect
       effect="spiro"
       id="path-effect3011"
       is_visible="true"
       lpeversion="1" /><inkscape:path-effect
       effect="spiro"
       id="path-effect1281"
       is_visible="true"
       lpeversion="1" /><inkscape:path-effect
       effect="spiro"
       id="path-effect347"
       is_visible="true"
       lpeversion="1" /><inkscape:path-effect
       effect="spiro"
       id="path-effect347-3"
       is_visible="true"
       lpeversion="1" /></defs><g
     inkscape:label="Layer 1"
     inkscape:groupmode="layer"
     id="layer1"><rect
       style="fill:#151824;stroke-width:1.50019;stroke-linecap:round;stroke-linejoin:bevel;fill-opacity:1"
       id="rect12804"
       width="1016"
       height="571.5"
       x="0"
       y="0" /></g><g
     inkscape:groupmode="layer"
     id="layer2"
     inkscape:label="Layer 2"><path
       style="fill:#532b78;fill-opacity:1;stroke-width:1.50019;stroke-linecap:round;stroke-linejoin:bevel"
       d="m 149.00583,604.06134 c 27.34338,-13.68459 52.82899,-32.41755 70.01414,-57.70785 8.59258,-12.64514 15.00944,-26.83858 18.18235,-41.79401 3.17291,-14.95542 3.05182,-30.67611 -0.98594,-45.42157 -4.20792,-15.3669 -12.53335,-29.35546 -22.44878,-41.82672 -9.91543,-12.47126 -21.43641,-23.55655 -32.86523,-34.65746 -11.42882,-11.1009 -22.84683,-22.30769 -32.51393,-34.97241 -9.6671,-12.66473 -17.58769,-26.92325 -21.18525,-42.44439 -5.70172,-24.59925 -0.0963,-50.78288 11.01278,-73.45931 11.1091,-22.67643 27.41539,-42.3553 44.12298,-61.28911 16.7076,-18.9338 34.06507,-37.48049 47.79121,-58.67543 C 243.8563,90.618129 253.9047,66.290242 254.17149,41.040261 254.43371,16.222608 245.02607,-8.2948383 229.54472,-27.693611 214.06337,-47.092384 192.75964,-61.482319 169.55358,-70.283638 123.14145,-87.886276 71.044252,-83.241072 23.059157,-70.537948 -70.004662,-45.901105 -155.48895,9.2852951 -212.49237,86.864017 c -57.00342,77.578723 -84.21457,177.489163 -69.80746,272.674683 14.40711,95.18553 71.50822,184.00276 154.51803,232.75951 41.5049,24.37838 88.898345,38.79387 136.9806438,41.04212 48.0822992,2.24824 96.7620062,-7.73619 139.8069862,-29.27899 z"
       id="path345"
       sodipodi:nodetypes="ssssss"
       inkscape:original-d="M 149.00583,604.06134 C 185.34329,828.92751 362.32995,472.81826 236.21638,459.13791 180.16499,453.05766 163.54118,356.53752 127.20319,305.23693 90.865055,253.93635 211.84899,129.10609 254.17149,41.040261 296.494,-47.025565 94.452385,-33.344948 23.059157,-70.537948 -48.334056,-107.73095 112.66829,379.19517 149.00583,604.06134 Z"
       inkscape:path-effect="#path-effect347" /></g><g
     inkscape:groupmode="layer"
     id="layer3"
     inkscape:label="hasha"><path
       style="fill:#cc0000;fill-opacity:1"
       d="m 488.52665,353.85231 c 0.54571,-0.0571 1.43868,-0.0571 1.98438,0 0.5457,0.0571 0.0992,0.10378 -0.99219,0.10378 -1.0914,0 -1.53789,-0.0467 -0.99219,-0.10378 z m 41.275,0 c 0.54571,-0.0571 1.43868,-0.0571 1.98438,0 0.5457,0.0571 0.0992,0.10378 -0.99219,0.10378 -1.0914,0 -1.53789,-0.0467 -0.99219,-0.10378 z m -47.09219,-0.26171 c 0.40218,-0.0608 0.99749,-0.0592 1.32292,0.004 0.32542,0.0628 -0.004,0.11256 -0.73125,0.11057 -0.7276,-0.002 -0.99385,-0.0534 -0.59167,-0.11419 z m 53.71042,0 c 0.40218,-0.0608 0.99749,-0.0592 1.32291,0.004 0.32542,0.0628 -0.004,0.11256 -0.73124,0.11057 -0.7276,-0.002 -0.99386,-0.0534 -0.59167,-0.11419 z m -57.41319,-0.25807 c 0.25743,-0.0671 0.61462,-0.0627 0.79375,0.01 0.17913,0.0725 -0.0315,0.12736 -0.46806,0.12197 -0.43656,-0.005 -0.58312,-0.0647 -0.32569,-0.13177 z m 61.64792,0 c 0.25743,-0.0671 0.61461,-0.0627 0.79375,0.01 0.17913,0.0725 -0.0315,0.12736 -0.46806,0.12197 -0.43656,-0.005 -0.58312,-0.0647 -0.32569,-0.13177 z m -64.55834,-0.26459 c 0.25743,-0.0671 0.61462,-0.0627 0.79375,0.01 0.17913,0.0725 -0.0315,0.12736 -0.46805,0.12197 -0.43657,-0.005 -0.58313,-0.0647 -0.3257,-0.13178 z m 67.46875,0 c 0.25743,-0.0671 0.61462,-0.0627 0.79375,0.01 0.17913,0.0725 -0.0315,0.12736 -0.46805,0.12197 -0.43657,-0.005 -0.58313,-0.0647 -0.3257,-0.13178 z m -69.72274,-0.25645 c 0.1819,-0.0734 0.47956,-0.0734 0.66146,0 0.1819,0.0734 0.0331,0.13345 -0.33073,0.13345 -0.3638,0 -0.51263,-0.0601 -0.33073,-0.13345 z m 71.96667,0 c 0.1819,-0.0734 0.47955,-0.0734 0.66145,0 0.18191,0.0734 0.0331,0.13345 -0.33073,0.13345 -0.3638,0 -0.51263,-0.0601 -0.33072,-0.13345 z M 471.9902,352.5469 c 0.1819,-0.0734 0.47955,-0.0734 0.66145,0 0.18191,0.0734 0.0331,0.13346 -0.33073,0.13346 -0.3638,0 -0.51263,-0.0601 -0.33072,-0.13346 z m 75.95195,-0.006 c 0.19099,-0.0764 0.4192,-0.067 0.50712,0.0209 0.0879,0.0879 -0.0684,0.15045 -0.34727,0.13896 -0.30822,-0.0127 -0.37092,-0.0754 -0.15985,-0.15985 z m -77.52292,-0.26458 c 0.191,-0.0764 0.4192,-0.067 0.50712,0.0209 0.0879,0.0879 -0.0684,0.15045 -0.34727,0.13896 -0.30822,-0.0127 -0.37091,-0.0754 -0.15985,-0.15985 z m 79.11042,0 c 0.19099,-0.0764 0.4192,-0.067 0.50712,0.0209 0.0879,0.0879 -0.0684,0.15045 -0.34727,0.13896 -0.30822,-0.0127 -0.37092,-0.0754 -0.15985,-0.15985 z m 1.32292,-0.26459 c 0.19099,-0.0764 0.41919,-0.067 0.50711,0.0209 0.0879,0.0879 -0.0684,0.15046 -0.34726,0.13897 -0.30823,-0.0127 -0.37092,-0.0754 -0.15985,-0.15986 z m 1.32291,-0.26458 c 0.191,-0.0764 0.4192,-0.067 0.50712,0.0209 0.0879,0.0879 -0.0684,0.15045 -0.34727,0.13896 -0.30822,-0.0127 -0.37091,-0.0754 -0.15985,-0.15985 z m -99.46747,-6.63228 c -0.32911,-0.41964 -0.31975,-0.429 0.0999,-0.0999 0.44073,0.34564 0.58089,0.56291 0.36313,0.56291 -0.0549,0 -0.2633,-0.20836 -0.46302,-0.46302 z m -2.75147,-2.51354 -1.84499,-1.91823 1.91823,1.84499 c 1.05503,1.01474 1.91823,1.87794 1.91823,1.91823 0,0.19407 -0.27785,-0.0633 -1.99147,-1.84499 z m 120.12793,0.0661 c 0.86401,-0.87312 1.63046,-1.5875 1.70322,-1.5875 0.0728,0 -0.57463,0.71438 -1.43864,1.5875 -0.86401,0.87313 -1.63047,1.5875 -1.70323,1.5875 -0.0728,0 0.57463,-0.71437 1.43865,-1.5875 z m -122.66813,-2.84427 c -0.3291,-0.41964 -0.31975,-0.429 0.0999,-0.0999 0.44073,0.34564 0.58088,0.56291 0.36312,0.56291 -0.0549,0 -0.2633,-0.20835 -0.46302,-0.46302 z m 124.91708,0.36313 c 0,-0.0549 0.20836,-0.2633 0.46303,-0.46302 0.41964,-0.32911 0.429,-0.31975 0.0999,0.0999 -0.34564,0.44073 -0.56292,0.58089 -0.56292,0.36313 z m -65.55052,-4.05836 c 0.40019,-0.0606 1.05503,-0.0606 1.45521,0 0.40018,0.0606 0.0728,0.11022 -0.7276,0.11022 -0.80037,0 -1.12779,-0.0496 -0.72761,-0.11022 z m 4.7625,0 c 0.40019,-0.0606 1.05503,-0.0606 1.45521,0 0.40018,0.0606 0.0728,0.11022 -0.7276,0.11022 -0.80037,0 -1.12779,-0.0496 -0.72761,-0.11022 z m -7.93246,-0.25843 c 0.25743,-0.0671 0.61462,-0.0627 0.79375,0.01 0.17913,0.0725 -0.0315,0.12736 -0.46806,0.12197 -0.43656,-0.005 -0.58312,-0.0647 -0.32569,-0.13177 z m 12.03351,0.008 c 0.1819,-0.0734 0.47955,-0.0734 0.66145,0 0.18191,0.0734 0.0331,0.13346 -0.33073,0.13346 -0.3638,0 -0.51263,-0.0601 -0.33072,-0.13346 z m -14.02292,-0.26458 c 0.1819,-0.0734 0.47956,-0.0734 0.66146,0 0.1819,0.0734 0.0331,0.13345 -0.33073,0.13345 -0.3638,0 -0.51263,-0.0601 -0.33073,-0.13345 z m 16.15612,-0.006 c 0.19099,-0.0764 0.4192,-0.067 0.50712,0.0209 0.0879,0.0879 -0.0684,0.15045 -0.34727,0.13896 -0.30822,-0.0127 -0.37092,-0.0754 -0.15985,-0.15985 z m 1.5875,-0.26459 c 0.19099,-0.0764 0.4192,-0.067 0.50712,0.0209 0.0879,0.0879 -0.0684,0.15046 -0.34727,0.13897 -0.30822,-0.0127 -0.37092,-0.0754 -0.15985,-0.15986 z m 1.32292,-0.26458 c 0.19099,-0.0764 0.41919,-0.067 0.50711,0.0209 0.0879,0.0879 -0.0684,0.15045 -0.34726,0.13896 -0.30823,-0.0127 -0.37092,-0.0754 -0.15985,-0.15985 z m -43.64039,-10.07186 c -0.32911,-0.41965 -0.31975,-0.42901 0.0999,-0.0999 0.44073,0.34565 0.58089,0.56292 0.36313,0.56292 -0.055,0 -0.2633,-0.20836 -0.46302,-0.46302 z m 65.91499,-0.16604 c 0,-0.0549 0.20836,-0.26331 0.46303,-0.46302 0.41964,-0.32911 0.429,-0.31975 0.0999,0.0999 -0.34564,0.44073 -0.56292,0.58089 -0.56292,0.36313 z m -67.09701,-0.76 -0.50403,-0.59532 0.59532,0.50403 c 0.55944,0.47366 0.71576,0.6866 0.50402,0.6866 -0.0502,0 -0.31809,-0.26789 -0.59531,-0.59531 z m -35.27585,-0.61737 c 0.0127,-0.30822 0.0754,-0.37091 0.15986,-0.15985 0.0764,0.191 0.067,0.4192 -0.0209,0.50712 -0.0879,0.0879 -0.15046,-0.0683 -0.13897,-0.34727 z m 138.90625,0 c 0.0127,-0.30822 0.0754,-0.37091 0.15986,-0.15985 0.0764,0.191 0.067,0.4192 -0.0209,0.50712 -0.0879,0.0879 -0.15046,-0.0683 -0.13897,-0.34727 z m -34.41672,-0.50711 c 0.34178,-0.36381 0.68094,-0.66146 0.7537,-0.66146 0.0728,0 -0.14734,0.29765 -0.48912,0.66146 -0.34177,0.3638 -0.68093,0.66145 -0.75369,0.66145 -0.0728,0 0.14734,-0.29765 0.48911,-0.66145 z m -71.70208,-1.05834 c -0.64268,-0.65484 -1.10898,-1.19062 -1.03622,-1.19062 0.0728,0 0.65812,0.53578 1.3008,1.19062 0.64268,0.65485 1.10898,1.19063 1.03622,1.19063 -0.0728,0 -0.65812,-0.53578 -1.3008,-1.19063 z m -33.05203,-0.022 c 0.0127,-0.30822 0.0754,-0.37091 0.15985,-0.15985 0.0764,0.191 0.067,0.4192 -0.0209,0.50712 -0.0879,0.0879 -0.15045,-0.0684 -0.13896,-0.34727 z m 139.43542,0 c 0.0127,-0.30822 0.0754,-0.37091 0.15985,-0.15985 0.0764,0.191 0.067,0.4192 -0.0209,0.50712 -0.0879,0.0879 -0.15045,-0.0684 -0.13896,-0.34727 z m -139.7,-1.5875 c 0.0127,-0.30822 0.0754,-0.37091 0.15985,-0.15985 0.0764,0.191 0.067,0.4192 -0.0209,0.50712 -0.0879,0.0879 -0.15045,-0.0684 -0.13896,-0.34727 z m 139.96458,0 c 0.0127,-0.30822 0.0754,-0.37091 0.15985,-0.15985 0.0764,0.191 0.067,0.4192 -0.0209,0.50712 -0.0879,0.0879 -0.15045,-0.0684 -0.13896,-0.34727 z m -72.03716,-0.0264 c 0.19099,-0.0764 0.41919,-0.067 0.50711,0.0209 0.0879,0.0879 -0.0684,0.15046 -0.34726,0.13897 -0.30823,-0.0127 -0.37092,-0.0754 -0.15985,-0.15986 z m 3.70416,0 c 0.191,-0.0764 0.4192,-0.067 0.50712,0.0209 0.0879,0.0879 -0.0684,0.15046 -0.34727,0.13897 -0.30822,-0.0127 -0.37091,-0.0754 -0.15985,-0.15986 z m -41.63891,-1.73748 -0.7771,-0.8599 0.85989,0.77711 c 0.80155,0.72437 0.98151,0.94268 0.77711,0.94268 -0.0455,0 -0.43249,-0.38695 -0.8599,-0.85989 z m 33.87086,-0.52917 -1.04588,-1.12448 1.12448,1.04588 c 1.04575,0.97267 1.24606,1.20308 1.04588,1.20308 -0.0432,0 -0.54924,-0.50602 -1.12448,-1.12448 z m -64.10723,0.33073 c 0,-0.3638 0.0601,-0.51263 0.13345,-0.33073 0.0734,0.1819 0.0734,0.47956 0,0.66146 -0.0734,0.1819 -0.13345,0.0331 -0.13345,-0.33073 z m 76.42281,-0.39688 c 0.49365,-0.50932 0.95708,-0.92604 1.02984,-0.92604 0.0728,0 -0.2716,0.41672 -0.76526,0.92604 -0.49365,0.50933 -0.95708,0.92604 -1.02985,0.92604 -0.0728,0 0.27161,-0.41671 0.76527,-0.92604 z m 33.60208,0.26459 c 0.34178,-0.36381 0.68094,-0.66146 0.7537,-0.66146 0.0728,0 -0.14734,0.29765 -0.48912,0.66146 -0.34177,0.3638 -0.68093,0.66145 -0.75369,0.66145 -0.0728,0 0.14734,-0.29765 0.48911,-0.66145 z m 30.46886,0.13229 c 0,-0.3638 0.0601,-0.51263 0.13345,-0.33073 0.0734,0.1819 0.0734,0.47956 0,0.66146 -0.0734,0.1819 -0.13345,0.0331 -0.13345,-0.33073 z m -111.99427,-1.78594 c -0.32911,-0.41964 -0.31975,-0.429 0.0999,-0.0999 0.25466,0.19971 0.46302,0.40807 0.46302,0.46302 0,0.21776 -0.21727,0.0776 -0.56291,-0.36313 z m -28.75426,-0.46302 c 0.005,-0.43656 0.0647,-0.58312 0.13178,-0.32569 0.0671,0.25743 0.0627,0.61461 -0.01,0.79375 -0.0725,0.17913 -0.12736,-0.0315 -0.12197,-0.46806 z m 111.60259,0.56156 c 0,-0.0549 0.20836,-0.2633 0.46302,-0.46302 0.41964,-0.32911 0.429,-0.31975 0.0999,0.0999 -0.34564,0.44073 -0.56291,0.58088 -0.56291,0.36312 z m 29.42033,-0.56156 c 0.005,-0.43656 0.0647,-0.58312 0.13177,-0.32569 0.0671,0.25743 0.0627,0.61461 -0.01,0.79375 -0.0725,0.17913 -0.12736,-0.0315 -0.12197,-0.46806 z m -113.327,-0.8599 c -0.3291,-0.41964 -0.31975,-0.429 0.0999,-0.0999 0.25466,0.19972 0.46302,0.40808 0.46302,0.46302 0,0.21776 -0.21727,0.0776 -0.56292,-0.36313 z m -27.9507,-2.18281 c 0,-0.50932 0.0544,-0.71768 0.121,-0.46302 0.0666,0.25466 0.0666,0.67138 0,0.92604 -0.0666,0.25466 -0.121,0.0463 -0.121,-0.46302 z m 141.55209,0 c 0,-0.50932 0.0544,-0.71768 0.121,-0.46302 0.0666,0.25466 0.0666,0.67138 0,0.92604 -0.0666,0.25466 -0.121,0.0463 -0.121,-0.46302 z M 439.06271,308.8013 c 0,-0.80037 0.0496,-1.12779 0.11022,-0.72761 0.0606,0.40019 0.0606,1.05503 0,1.45521 -0.0606,0.40018 -0.11022,0.0728 -0.11022,-0.7276 z m 142.08125,0 c 0,-0.80037 0.0496,-1.12779 0.11022,-0.72761 0.0606,0.40019 0.0606,1.05503 0,1.45521 -0.0606,0.40018 -0.11022,0.0728 -0.11022,-0.7276 z m -142.32615,-7.54063 c 6e-4,-1.60073 0.0442,-2.22146 0.0968,-1.3794 0.0527,0.84206 0.0522,2.15175 -10e-4,2.91042 -0.0533,0.75867 -0.0963,0.0697 -0.0958,-1.53102 z m 142.61151,-0.13229 c 0,-1.67349 0.043,-2.3581 0.0955,-1.52135 0.0525,0.83674 0.0525,2.20596 0,3.04271 -0.0525,0.83674 -0.0955,0.15213 -0.0955,-1.52136 z m -124.16876,-8.62101 c 0.0127,-0.30822 0.0754,-0.37091 0.15986,-0.15985 0.0764,0.191 0.067,0.4192 -0.0209,0.50712 -0.0879,0.0879 -0.15046,-0.0684 -0.13897,-0.34727 z m 105.30417,-1.05833 c 0.0127,-0.30822 0.0754,-0.37092 0.15985,-0.15985 0.0764,0.19099 0.067,0.4192 -0.0209,0.50712 -0.0879,0.0879 -0.15045,-0.0684 -0.13896,-0.34727 z m -105.56875,-0.52917 c 0.0127,-0.30822 0.0754,-0.37091 0.15985,-0.15985 0.0764,0.191 0.067,0.4192 -0.0209,0.50712 -0.0879,0.0879 -0.15045,-0.0684 -0.13896,-0.34727 z m 57.06297,-1.07922 c 0.1819,-0.0734 0.47955,-0.0734 0.66145,0 0.18191,0.0734 0.0331,0.13346 -0.33073,0.13346 -0.3638,0 -0.51263,-0.0601 -0.33072,-0.13346 z m 3.70416,0 c 0.1819,-0.0734 0.47956,-0.0734 0.66146,0 0.1819,0.0734 0.0331,0.13346 -0.33073,0.13346 -0.3638,0 -0.51263,-0.0601 -0.33073,-0.13346 z m 45.08709,-0.35394 c 0,-0.3638 0.0601,-0.51263 0.13345,-0.33072 0.0734,0.1819 0.0734,0.47955 0,0.66145 -0.0734,0.1819 -0.13345,0.0331 -0.13345,-0.33073 z m -106.09792,-0.52916 c 0,-0.3638 0.0601,-0.51263 0.13346,-0.33073 0.0734,0.1819 0.0734,0.47956 0,0.66146 -0.0734,0.1819 -0.13346,0.0331 -0.13346,-0.33073 z m 65.57489,-0.36857 c 0,-0.0572 0.18478,-0.17489 0.41062,-0.26155 0.23546,-0.0904 0.34166,-0.046 0.24897,0.10398 -0.15538,0.25141 -0.65959,0.37186 -0.65959,0.15757 z m 40.81256,-1.61581 c 0.003,-0.58208 0.0571,-0.78905 0.12041,-0.45993 0.0633,0.32912 0.0609,0.80537 -0.005,1.05833 -0.0662,0.25297 -0.118,-0.0163 -0.11507,-0.5984 z m -56.05124,-0.19843 -0.50402,-0.59532 0.59531,0.50403 c 0.55945,0.47366 0.71576,0.6866 0.50403,0.6866 -0.0502,0 -0.3181,-0.26789 -0.59532,-0.59531 z m 17.61993,0.49541 c 0,-0.0549 0.20836,-0.2633 0.46303,-0.46302 0.41964,-0.32911 0.429,-0.31975 0.0999,0.0999 -0.34564,0.44073 -0.56292,0.58088 -0.56292,0.36312 z m -68.18321,-1.75219 c 0,-0.80036 0.0496,-1.12778 0.11022,-0.7276 0.0606,0.40018 0.0606,1.05503 0,1.45521 -0.0606,0.40018 -0.11022,0.0728 -0.11022,-0.72761 z m 48.7112,-0.59531 -0.50403,-0.59531 0.59532,0.50403 c 0.32742,0.27721 0.59531,0.5451 0.59531,0.59531 0,0.21173 -0.21294,0.0554 -0.6866,-0.50403 z m -48.7085,-4.56406 c 10e-4,-0.87313 0.0509,-1.19841 0.10977,-0.72287 0.0589,0.47555 0.0577,1.18993 -0.003,1.5875 -0.0604,0.39758 -0.10855,0.008 -0.10707,-0.86463 z m 106.61182,-1.32292 c 0.003,-0.58208 0.0571,-0.78905 0.12041,-0.45993 0.0633,0.32912 0.0609,0.80537 -0.005,1.05833 -0.0662,0.25297 -0.118,-0.0163 -0.11507,-0.5984 z m -32.85417,-1.08038 c 0.0127,-0.30822 0.0754,-0.37092 0.15986,-0.15985 0.0764,0.19099 0.067,0.4192 -0.0209,0.50712 -0.0879,0.0879 -0.15046,-0.0684 -0.13897,-0.34727 z m -73.52347,-1.03628 c 0.005,-0.43657 0.0647,-0.58313 0.13177,-0.3257 0.0671,0.25743 0.0627,0.61462 -0.01,0.79375 -0.0725,0.17913 -0.12736,-0.0315 -0.12197,-0.46805 z m 106.08811,-0.66146 c 0,-0.3638 0.0601,-0.51263 0.13345,-0.33073 0.0734,0.1819 0.0734,0.47956 0,0.66146 -0.0734,0.1819 -0.13345,0.0331 -0.13345,-0.33073 z m -32.30005,-0.41893 c 0.0127,-0.30822 0.0754,-0.37091 0.15985,-0.15985 0.0764,0.191 0.067,0.4192 -0.0209,0.50712 -0.0879,0.0879 -0.15045,-0.0683 -0.13896,-0.34727 z m -73.53328,-0.90399 c 0,-0.3638 0.06,-0.51263 0.13345,-0.33073 0.0734,0.1819 0.0734,0.47956 0,0.66146 -0.0734,0.1819 -0.13345,0.0331 -0.13345,-0.33073 z m 105.54786,-0.68351 c 0.0127,-0.30822 0.0754,-0.37091 0.15985,-0.15985 0.0764,0.191 0.067,0.4192 -0.0209,0.50712 -0.0879,0.0879 -0.15045,-0.0684 -0.13896,-0.34727 z m -32.27917,-0.79375 c 0.0127,-0.30822 0.0754,-0.37091 0.15986,-0.15985 0.0764,0.191 0.067,0.4192 -0.0209,0.50712 -0.0879,0.0879 -0.15046,-0.0684 -0.13897,-0.34727 z m 32.01459,-0.52916 c 0.0127,-0.30823 0.0754,-0.37092 0.15985,-0.15985 0.0764,0.19099 0.067,0.41919 -0.0209,0.50711 -0.0879,0.0879 -0.15045,-0.0684 -0.13896,-0.34726 z m -0.26459,-1.32292 c 0.0127,-0.30822 0.0754,-0.37092 0.15986,-0.15985 0.0764,0.19099 0.067,0.4192 -0.0209,0.50712 -0.0879,0.0879 -0.15046,-0.0684 -0.13897,-0.34727 z m -104.24583,-0.79375 c 0.0127,-0.30822 0.0754,-0.37092 0.15985,-0.15985 0.0764,0.19099 0.067,0.4192 -0.0209,0.50712 -0.0879,0.0879 -0.15045,-0.0684 -0.13896,-0.34727 z m 123.63959,-6.19566 c 0,-1.67349 0.043,-2.3581 0.0955,-1.52135 0.0525,0.83674 0.0525,2.20596 0,3.04271 -0.0525,0.83674 -0.0955,0.15213 -0.0955,-1.52136 z m -142.61151,-0.13229 c 6e-4,-1.60073 0.0442,-2.22146 0.0968,-1.3794 0.0527,0.84206 0.0522,2.15174 -10e-4,2.91041 -0.0533,0.75868 -0.0963,0.0697 -0.0958,-1.53101 z m 35.64067,2.09462 c 0.0127,-0.30823 0.0754,-0.37092 0.15985,-0.15985 0.0764,0.19099 0.067,0.41919 -0.0209,0.50711 -0.0879,0.0879 -0.15045,-0.0684 -0.13896,-0.34726 z m 71.17292,-0.26459 c 0.0127,-0.30822 0.0754,-0.37091 0.15985,-0.15985 0.0764,0.191 0.067,0.4192 -0.0209,0.50712 -0.0879,0.0879 -0.15045,-0.0684 -0.13896,-0.34727 z m -17.72709,-1.32291 c 0.0127,-0.30823 0.0754,-0.37092 0.15986,-0.15985 0.0764,0.19099 0.067,0.41919 -0.0209,0.50711 -0.0879,0.0879 -0.15046,-0.0684 -0.13897,-0.34726 z m 17.74797,-1.16858 c 0,-0.3638 0.0601,-0.51263 0.13346,-0.33073 0.0734,0.1819 0.0734,0.47956 0,0.66146 -0.0734,0.1819 -0.13346,0.0331 -0.13346,-0.33073 z m -71.1938,-0.41892 c 0.0127,-0.30823 0.0754,-0.37092 0.15985,-0.15985 0.0764,0.19099 0.067,0.41919 -0.0209,0.50711 -0.0879,0.0879 -0.15045,-0.0684 -0.13896,-0.34726 z m 53.71042,-0.26459 c 0.0127,-0.30822 0.0754,-0.37091 0.15985,-0.15985 0.0764,0.191 0.067,0.4192 -0.0209,0.50712 -0.0879,0.0879 -0.15045,-0.0684 -0.13896,-0.34727 z m -52.14381,-3.38513 c 0,-0.055 0.20836,-0.26331 0.46302,-0.46302 0.41965,-0.32911 0.429,-0.31975 0.0999,0.0999 -0.34565,0.44073 -0.56292,0.58089 -0.56292,0.36313 z m 13.98917,-0.36313 c -0.32911,-0.41964 -0.31975,-0.429 0.0999,-0.0999 0.44073,0.34564 0.58089,0.56291 0.36313,0.56291 -0.0549,0 -0.2633,-0.20836 -0.46302,-0.46302 z m 40.515,-0.46302 c 0.49365,-0.50932 0.95708,-0.92604 1.02984,-0.92604 0.0728,0 -0.2716,0.41672 -0.76526,0.92604 -0.49365,0.50932 -0.95708,0.92604 -1.02985,0.92604 -0.0728,0 0.27161,-0.41672 0.76527,-0.92604 z m 12.54257,-0.19844 -0.50403,-0.59531 0.59531,0.50403 c 0.32742,0.27721 0.59531,0.5451 0.59531,0.59531 0,0.21173 -0.21293,0.0554 -0.68659,-0.50403 z m -65.72382,-0.29833 c 0,-0.0549 0.20836,-0.2633 0.46302,-0.46302 0.41964,-0.32911 0.429,-0.31975 0.0999,0.0999 -0.34564,0.44073 -0.56291,0.58089 -0.56291,0.36313 z m -38.2853,-1.48761 c 0,-0.80036 0.0496,-1.12778 0.11022,-0.7276 0.0606,0.40018 0.0606,1.05503 0,1.45521 -0.0606,0.40018 -0.11022,0.0728 -0.11022,-0.72761 z m 49.36405,0.8599 c -0.32911,-0.41964 -0.31975,-0.429 0.0999,-0.0999 0.25467,0.19971 0.46302,0.40807 0.46302,0.46302 0,0.21776 -0.21727,0.0776 -0.56291,-0.36313 z m 92.7172,-0.8599 c 0,-0.80036 0.0496,-1.12778 0.11022,-0.7276 0.0606,0.40018 0.0606,1.05503 0,1.45521 -0.0606,0.40018 -0.11022,0.0728 -0.11022,-0.72761 z m -99.36418,-0.70439 c 0.1819,-0.0734 0.47956,-0.0734 0.66146,0 0.1819,0.0734 0.0331,0.13345 -0.33073,0.13345 -0.3638,0 -0.51263,-0.0601 -0.33073,-0.13345 z m 2.92695,-0.006 c 0.191,-0.0764 0.4192,-0.067 0.50712,0.0209 0.0879,0.0879 -0.0683,0.15045 -0.34727,0.13896 -0.30822,-0.0127 -0.37091,-0.0754 -0.15985,-0.15985 z m 51.58195,-0.011 c 0.47555,-0.0589 1.18993,-0.0577 1.5875,0.003 0.39758,0.0604 0.008,0.10855 -0.86463,0.10706 -0.87313,-0.001 -1.19841,-0.0509 -0.72287,-0.10976 z m -96.97929,-3.51242 c 0,-0.50932 0.0544,-0.71768 0.121,-0.46302 0.0666,0.25466 0.0666,0.67138 0,0.92604 -0.0666,0.25466 -0.121,0.0463 -0.121,-0.46302 z m 141.55209,0 c 0,-0.50932 0.0544,-0.71768 0.121,-0.46302 0.0666,0.25466 0.0666,0.67138 0,0.92604 -0.0666,0.25466 -0.121,0.0463 -0.121,-0.46302 z m -114.09681,-1.42281 c 0,-0.0549 0.20836,-0.2633 0.46303,-0.46302 0.41964,-0.32911 0.429,-0.31975 0.0999,0.0999 -0.34564,0.44073 -0.56292,0.58089 -0.56292,0.36313 z m 85.16209,-1.15688 c -0.32911,-0.41964 -0.31975,-0.429 0.0999,-0.0999 0.25467,0.19972 0.46302,0.40808 0.46302,0.46302 0,0.21776 -0.21727,0.0776 -0.56291,-0.36313 z m -112.36259,-0.46302 c 0.005,-0.43656 0.0647,-0.58312 0.13178,-0.32569 0.0671,0.25743 0.0627,0.61462 -0.01,0.79375 -0.0725,0.17913 -0.12736,-0.0315 -0.12197,-0.46806 z m 27.99425,0.56157 c 0,-0.0549 0.20836,-0.26331 0.46303,-0.46302 0.41964,-0.32911 0.429,-0.31975 0.0999,0.0999 -0.34564,0.44073 -0.56292,0.58089 -0.56292,0.36313 z m 113.02867,-0.56157 c 0.005,-0.43656 0.0647,-0.58312 0.13177,-0.32569 0.0671,0.25743 0.0627,0.61462 -0.01,0.79375 -0.0725,0.17913 -0.12736,-0.0315 -0.12197,-0.46806 z m -29.71866,-0.85989 c -0.32911,-0.41965 -0.31975,-0.42901 0.0999,-0.0999 0.25466,0.19972 0.46302,0.40808 0.46302,0.46302 0,0.21776 -0.21727,0.0776 -0.56291,-0.36312 z m -81.72251,-0.46302 c 0.34178,-0.36381 0.68094,-0.66146 0.7537,-0.66146 0.0728,0 -0.14734,0.29765 -0.48911,0.66146 -0.34178,0.3638 -0.68094,0.66145 -0.7537,0.66145 -0.0728,0 0.14734,-0.29765 0.48911,-0.66145 z m -29.32697,-0.92605 c 0,-0.3638 0.0601,-0.51263 0.13345,-0.33072 0.0734,0.1819 0.0734,0.47955 0,0.66145 -0.0734,0.1819 -0.13345,0.0331 -0.13345,-0.33073 z m 140.49375,0 c 0,-0.3638 0.0601,-0.51263 0.13345,-0.33072 0.0734,0.1819 0.0734,0.47955 0,0.66145 -0.0734,0.1819 -0.13345,0.0331 -0.13345,-0.33073 z m -32.72333,-2.18281 -2.37574,-2.44739 2.4474,2.37573 c 2.27309,2.20653 2.56783,2.51906 2.37573,2.51906 -0.0394,0 -1.14074,-1.10133 -2.44739,-2.4474 z m -75.40074,-0.19844 c 0.86402,-0.87312 1.63047,-1.5875 1.70323,-1.5875 0.0728,0 -0.57463,0.71438 -1.43864,1.5875 -0.86402,0.87313 -1.63047,1.5875 -1.70323,1.5875 -0.0728,0 0.57463,-0.71437 1.43864,-1.5875 z m -32.12598,0.37483 c 0.0127,-0.30822 0.0754,-0.37092 0.15985,-0.15985 0.0764,0.19099 0.067,0.4192 -0.0209,0.50712 -0.0879,0.0879 -0.15045,-0.0684 -0.13896,-0.34727 z m 139.96458,0 c 0.0127,-0.30822 0.0754,-0.37092 0.15985,-0.15985 0.0764,0.19099 0.067,0.4192 -0.0209,0.50712 -0.0879,0.0879 -0.15045,-0.0684 -0.13896,-0.34727 z m -139.7,-1.5875 c 0.0127,-0.30822 0.0754,-0.37092 0.15985,-0.15985 0.0764,0.19099 0.067,0.4192 -0.0209,0.50712 -0.0879,0.0879 -0.15045,-0.0684 -0.13896,-0.34727 z m 139.43542,0 c 0.0127,-0.30822 0.0754,-0.37092 0.15985,-0.15985 0.0764,0.19099 0.067,0.4192 -0.0209,0.50712 -0.0879,0.0879 -0.15045,-0.0684 -0.13896,-0.34727 z m -104.6636,-1.43316 c 0.26339,-0.29104 0.53842,-0.52917 0.61118,-0.52917 0.0728,0 -0.0832,0.23813 -0.3466,0.52917 -0.26339,0.29104 -0.53842,0.52917 -0.61118,0.52917 -0.0728,0 0.0832,-0.23813 0.3466,-0.52917 z m -34.50724,-0.15434 c 0.0127,-0.30822 0.0754,-0.37092 0.15986,-0.15985 0.0764,0.19099 0.067,0.4192 -0.0209,0.50712 -0.0879,0.0879 -0.15046,-0.0684 -0.13897,-0.34727 z m 103.53835,-0.17639 -0.50403,-0.59531 0.59532,0.50403 c 0.32742,0.27721 0.59531,0.5451 0.59531,0.59531 0,0.21173 -0.21294,0.0554 -0.6866,-0.50403 z m 35.3679,0.17639 c 0.0127,-0.30822 0.0754,-0.37092 0.15986,-0.15985 0.0764,0.19099 0.067,0.4192 -0.0209,0.50712 -0.0879,0.0879 -0.15046,-0.0684 -0.13897,-0.34727 z m -103.20839,-0.7393 c 0,-0.0549 0.20836,-0.26331 0.46303,-0.46302 0.41964,-0.32911 0.429,-0.31975 0.0999,0.0999 -0.34564,0.44073 -0.56292,0.58089 -0.56292,0.36313 z m 66.37667,-0.62771 c -0.3291,-0.41965 -0.31975,-0.42901 0.0999,-0.0999 0.44073,0.34565 0.58088,0.56292 0.36312,0.56292 -0.0549,0 -0.2633,-0.20836 -0.46302,-0.46302 z m -101.54536,-1.01424 c 0.0127,-0.30822 0.0754,-0.37092 0.15985,-0.15985 0.0764,0.19099 0.067,0.4192 -0.0209,0.50712 -0.0879,0.0879 -0.15045,-0.0684 -0.13896,-0.34727 z m 99.4287,-0.57326 c -0.32911,-0.41965 -0.31975,-0.42901 0.0999,-0.0999 0.44073,0.34565 0.58089,0.56292 0.36313,0.56292 -0.0549,0 -0.2633,-0.20836 -0.46302,-0.46302 z m -20.38878,-8.71356 c 0.19099,-0.0764 0.4192,-0.067 0.50712,0.0209 0.0879,0.0879 -0.0684,0.15046 -0.34727,0.13897 -0.30822,-0.0127 -0.37092,-0.0754 -0.15985,-0.15986 z m -19.31458,-0.26458 c 0.19099,-0.0764 0.41919,-0.067 0.50711,0.0209 0.0879,0.0879 -0.0684,0.15045 -0.34726,0.13896 -0.30823,-0.0127 -0.37092,-0.0754 -0.15985,-0.15985 z m 17.72708,0 c 0.19099,-0.0764 0.4192,-0.067 0.50712,0.0209 0.0879,0.0879 -0.0684,0.15045 -0.34727,0.13896 -0.30822,-0.0127 -0.37092,-0.0754 -0.15985,-0.15985 z m -16.15612,-0.25907 c 0.1819,-0.0734 0.47956,-0.0734 0.66146,0 0.1819,0.0734 0.0331,0.13345 -0.33073,0.13345 -0.3638,0 -0.51263,-0.06 -0.33073,-0.13345 z m 14.2875,0 c 0.1819,-0.0734 0.47956,-0.0734 0.66146,0 0.1819,0.0734 0.0331,0.13345 -0.33073,0.13345 -0.3638,0 -0.51263,-0.06 -0.33073,-0.13345 z m -11.90317,-0.27648 c 0.32912,-0.0633 0.80537,-0.0609 1.05834,0.005 0.25296,0.0662 -0.0163,0.11801 -0.5984,0.11507 -0.58208,-0.003 -0.78905,-0.0571 -0.45994,-0.1204 z m 9.38963,0.005 c 0.25466,-0.0666 0.67138,-0.0666 0.92604,0 0.25466,0.0666 0.0463,0.121 -0.46302,0.121 -0.50932,0 -0.71768,-0.0545 -0.46302,-0.121 z m -4.89006,-0.27395 c 0.47555,-0.0589 1.18993,-0.0577 1.5875,0.003 0.39758,0.0604 0.008,0.10855 -0.86463,0.10707 -0.87313,-0.001 -1.19841,-0.0509 -0.72287,-0.10977 z m -62.11567,-3.34773 c 0,-0.0549 0.20836,-0.2633 0.46302,-0.46302 0.41964,-0.32911 0.429,-0.31975 0.0999,0.0999 -0.34564,0.44073 -0.56291,0.58088 -0.56291,0.36312 z m 125.37875,-0.36312 c -0.32911,-0.41965 -0.31975,-0.42901 0.0999,-0.0999 0.44073,0.34565 0.58089,0.56292 0.36313,0.56292 -0.0549,0 -0.2633,-0.20836 -0.46302,-0.46302 z m -2.48689,-2.77813 -1.84499,-1.91823 1.91823,1.84499 c 1.78165,1.71362 2.03906,1.99147 1.84499,1.99147 -0.0403,0 -0.90349,-0.8632 -1.91823,-1.91823 z m -120.11374,0.0661 c 0.86402,-0.87313 1.63047,-1.5875 1.70323,-1.5875 0.0728,0 -0.57463,0.71437 -1.43864,1.5875 -0.86402,0.87312 -1.63047,1.5875 -1.70323,1.5875 -0.0728,0 0.57463,-0.71438 1.43864,-1.5875 z m 117.30896,-2.57969 c -0.3291,-0.41964 -0.31975,-0.429 0.0999,-0.0999 0.25466,0.19971 0.46302,0.40807 0.46302,0.46302 0,0.21776 -0.21727,0.0776 -0.56292,-0.36313 z m -99.49919,-6.59689 c 0.19099,-0.0764 0.4192,-0.067 0.50712,0.0209 0.0879,0.0879 -0.0684,0.15046 -0.34727,0.13897 -0.30822,-0.0127 -0.37092,-0.0754 -0.15985,-0.15986 z m 1.32292,-0.26458 c 0.19099,-0.0764 0.41919,-0.067 0.50711,0.0209 0.0879,0.0879 -0.0684,0.15045 -0.34726,0.13896 -0.30823,-0.0127 -0.37092,-0.0754 -0.15985,-0.15985 z m 1.32291,-0.26458 c 0.191,-0.0764 0.4192,-0.067 0.50712,0.0209 0.0879,0.0879 -0.0684,0.15045 -0.34727,0.13896 -0.30822,-0.0127 -0.37091,-0.0754 -0.15985,-0.15985 z m 79.11042,0 c 0.19099,-0.0764 0.4192,-0.067 0.50712,0.0209 0.0879,0.0879 -0.0684,0.15045 -0.34727,0.13896 -0.30822,-0.0127 -0.37092,-0.0754 -0.15985,-0.15985 z m -77.53945,-0.25907 c 0.1819,-0.0734 0.47955,-0.0734 0.66145,0 0.18191,0.0734 0.0331,0.13345 -0.33073,0.13345 -0.3638,0 -0.51263,-0.0601 -0.33072,-0.13345 z m 75.67083,0 c 0.1819,-0.0734 0.47956,-0.0734 0.66146,0 0.1819,0.0734 0.0331,0.13345 -0.33073,0.13345 -0.3638,0 -0.51263,-0.0601 -0.33073,-0.13345 z m -73.81875,-0.26459 c 0.1819,-0.0734 0.47956,-0.0734 0.66146,0 0.1819,0.0734 0.0331,0.13346 -0.33073,0.13346 -0.3638,0 -0.51263,-0.0601 -0.33073,-0.13346 z m 71.96667,0 c 0.1819,-0.0734 0.47955,-0.0734 0.66145,0 0.18191,0.0734 0.0331,0.13346 -0.33073,0.13346 -0.3638,0 -0.51263,-0.0601 -0.33072,-0.13346 z m -69.58542,-0.26458 c 0.1819,-0.0734 0.47956,-0.0734 0.66146,0 0.1819,0.0734 0.0331,0.13345 -0.33073,0.13345 -0.3638,0 -0.51263,-0.06 -0.33073,-0.13345 z m 67.34149,-0.008 c 0.25743,-0.0671 0.61462,-0.0627 0.79375,0.01 0.17913,0.0725 -0.0315,0.12736 -0.46805,0.12197 -0.43657,-0.005 -0.58313,-0.0647 -0.3257,-0.13178 z m -64.56337,-0.26361 c 0.25467,-0.0665 0.67138,-0.0665 0.92605,0 0.25466,0.0666 0.0463,0.121 -0.46303,0.121 -0.50932,0 -0.71768,-0.0545 -0.46302,-0.121 z m 61.38334,0 c 0.25466,-0.0665 0.67138,-0.0665 0.92604,0 0.25466,0.0666 0.0463,0.121 -0.46302,0.121 -0.50932,0 -0.71768,-0.0545 -0.46302,-0.121 z m -57.67553,-0.27206 c 0.40218,-0.0608 0.99749,-0.0592 1.32292,0.004 0.32542,0.0628 -0.004,0.11256 -0.73125,0.11058 -0.7276,-0.002 -0.99385,-0.0534 -0.59167,-0.11419 z m 53.71042,0 c 0.40218,-0.0608 0.99749,-0.0592 1.32291,0.004 0.32542,0.0628 -0.004,0.11256 -0.73124,0.11058 -0.7276,-0.002 -0.99386,-0.0534 -0.59167,-0.11419 z m -47.62066,-0.26953 c 0.69562,-0.0547 1.76718,-0.054 2.38125,0.001 0.61407,0.0555 0.0449,0.10023 -1.26475,0.0994 -1.30969,-8e-4 -1.81211,-0.0462 -1.1165,-0.10089 z m 40.48125,0 c 0.69562,-0.0547 1.76718,-0.054 2.38125,0.001 0.61407,0.0555 0.0449,0.10023 -1.26475,0.0994 -1.30969,-8e-4 -1.81211,-0.0462 -1.1165,-0.10089 z"
       id="path14" /><path
       style="fill:#cc0000;fill-opacity:1"
       d="m 492.75999,353.84952 c 0.83674,-0.0525 2.20596,-0.0525 3.04271,0 0.83674,0.0525 0.15213,0.0955 -1.52136,0.0955 -1.67349,0 -2.3581,-0.043 -1.52135,-0.0955 z m 31.75,0 c 0.83674,-0.0525 2.20596,-0.0525 3.04271,0 0.83674,0.0525 0.15213,0.0955 -1.52136,0.0955 -1.67349,0 -2.3581,-0.043 -1.52135,-0.0955 z m -39.41928,-0.25892 c 0.40218,-0.0608 0.99749,-0.0592 1.32292,0.004 0.32542,0.0628 -0.004,0.11256 -0.73125,0.11057 -0.7276,-0.002 -0.99385,-0.0534 -0.59167,-0.11419 z m 48.94792,0 c 0.40218,-0.0608 0.99749,-0.0592 1.32291,0.004 0.32542,0.0628 -0.004,0.11256 -0.73124,0.11057 -0.7276,-0.002 -0.99386,-0.0534 -0.59167,-0.11419 z m -53.57868,-0.26185 c 0.32912,-0.0633 0.80537,-0.0609 1.05833,0.005 0.25297,0.0662 -0.0163,0.118 -0.5984,0.11507 -0.58208,-0.003 -0.78905,-0.0571 -0.45993,-0.12041 z m 58.60212,0.005 c 0.25466,-0.0666 0.67138,-0.0666 0.92604,0 0.25466,0.0666 0.0463,0.121 -0.46302,0.121 -0.50932,0 -0.71768,-0.0544 -0.46302,-0.121 z m -61.78021,-0.25743 c 0.1819,-0.0734 0.47956,-0.0734 0.66146,0 0.1819,0.0734 0.0331,0.13345 -0.33073,0.13345 -0.3638,0 -0.51263,-0.06 -0.33073,-0.13345 z m 65.0875,0 c 0.1819,-0.0734 0.47956,-0.0734 0.66146,0 0.1819,0.0734 0.0331,0.13345 -0.33073,0.13345 -0.3638,0 -0.51263,-0.06 -0.33073,-0.13345 z m -67.45221,-0.2701 c 0.19099,-0.0764 0.4192,-0.067 0.50712,0.0209 0.0879,0.0879 -0.0683,0.15046 -0.34727,0.13897 -0.30822,-0.0127 -0.37092,-0.0754 -0.15985,-0.15986 z m 70.11458,0 c 0.191,-0.0764 0.4192,-0.067 0.50712,0.0209 0.0879,0.0879 -0.0684,0.15046 -0.34727,0.13897 -0.30822,-0.0127 -0.37091,-0.0754 -0.15985,-0.15986 z m 2.11667,-0.26458 c 0.19099,-0.0764 0.4192,-0.067 0.50712,0.0209 0.0879,0.0879 -0.0684,0.15045 -0.34727,0.13896 -0.30822,-0.0127 -0.37092,-0.0754 -0.15985,-0.15985 z m -75.93542,-0.26458 c 0.191,-0.0764 0.4192,-0.067 0.50712,0.0209 0.0879,0.0879 -0.0684,0.15045 -0.34727,0.13896 -0.30822,-0.0127 -0.37091,-0.0754 -0.15985,-0.15985 z m -1.5875,-0.26459 c 0.191,-0.0764 0.4192,-0.067 0.50712,0.0209 0.0879,0.0879 -0.0684,0.15046 -0.34727,0.13897 -0.30822,-0.0127 -0.37091,-0.0754 -0.15985,-0.15986 z m -17.71122,-7.69061 c -0.32911,-0.41964 -0.31975,-0.429 0.0999,-0.0999 0.44073,0.34564 0.58089,0.56291 0.36313,0.56291 -0.0549,0 -0.2633,-0.20836 -0.46302,-0.46302 z m 115.92125,0.36313 c 0,-0.0549 0.20836,-0.26331 0.46302,-0.46302 0.41964,-0.32911 0.429,-0.31975 0.0999,0.0999 -0.34564,0.44073 -0.56291,0.58089 -0.56291,0.36313 z m -119.62542,-4.0673 c -0.3291,-0.41964 -0.31975,-0.429 0.0999,-0.0999 0.44073,0.34564 0.58088,0.56291 0.36312,0.56291 -0.0549,0 -0.2633,-0.20835 -0.46302,-0.46302 z m 123.32958,0.36313 c 0,-0.0549 0.20836,-0.2633 0.46303,-0.46302 0.41964,-0.32911 0.429,-0.31975 0.0999,0.0999 -0.34564,0.44073 -0.56292,0.58089 -0.56292,0.36313 z m -66.33923,-4.84596 c 0.25743,-0.0671 0.61462,-0.0627 0.79375,0.01 0.17913,0.0725 -0.0315,0.12737 -0.46806,0.12197 -0.43656,-0.005 -0.58312,-0.0647 -0.32569,-0.13177 z m 8.73125,0 c 0.25743,-0.0671 0.61462,-0.0627 0.79375,0.01 0.17913,0.0725 -0.0315,0.12737 -0.46806,0.12197 -0.43656,-0.005 -0.58312,-0.0647 -0.32569,-0.13177 z m -11.23329,-0.26197 c 0.19099,-0.0764 0.4192,-0.067 0.50712,0.0209 0.0879,0.0879 -0.0683,0.15045 -0.34727,0.13896 -0.30822,-0.0127 -0.37092,-0.0754 -0.15985,-0.15985 z m 14.02292,0 c 0.19099,-0.0764 0.41919,-0.067 0.50711,0.0209 0.0879,0.0879 -0.0684,0.15045 -0.34726,0.13896 -0.30823,-0.0127 -0.37092,-0.0754 -0.15985,-0.15985 z m 27.0371,-11.56082 c 0,-0.0549 0.20836,-0.2633 0.46303,-0.46302 0.41964,-0.32911 0.429,-0.31975 0.0999,0.0999 -0.34564,0.44073 -0.56292,0.58089 -0.56292,0.36313 z m -68.82541,-0.89229 c -0.32911,-0.41965 -0.31975,-0.42901 0.0999,-0.0999 0.25467,0.19972 0.46302,0.40808 0.46302,0.46302 0,0.21776 -0.21727,0.0776 -0.56291,-0.36312 z m 72.66187,-2.71198 c 1.15734,-1.16417 2.16379,-2.11667 2.23655,-2.11667 0.0728,0 -0.81462,0.9525 -1.97196,2.11667 -1.15734,1.16416 -2.16379,2.11666 -2.23655,2.11666 -0.0728,0 0.81462,-0.9525 1.97196,-2.11666 z m -76.07674,-0.46302 -1.44617,-1.52136 1.52135,1.44617 c 0.83675,0.7954 1.52135,1.48001 1.52135,1.52136 0,0.19639 -0.253,-0.0328 -1.59653,-1.44617 z m 37.24914,0.0232 c 0.1819,-0.0734 0.47956,-0.0734 0.66146,0 0.1819,0.0734 0.0331,0.13345 -0.33073,0.13345 -0.3638,0 -0.51263,-0.0601 -0.33073,-0.13345 z m 1.85208,0 c 0.1819,-0.0734 0.47956,-0.0734 0.66146,0 0.1819,0.0734 0.0331,0.13345 -0.33073,0.13345 -0.3638,0 -0.51263,-0.0601 -0.33073,-0.13345 z m -70.55671,-0.77287 c 0.0127,-0.30822 0.0754,-0.37091 0.15985,-0.15985 0.0764,0.191 0.067,0.4192 -0.0209,0.50712 -0.0879,0.0879 -0.15045,-0.0683 -0.13896,-0.34727 z m 139.96458,0 c 0.0127,-0.30822 0.0754,-0.37091 0.15985,-0.15985 0.0764,0.191 0.067,0.4192 -0.0209,0.50712 -0.0879,0.0879 -0.15045,-0.0683 -0.13896,-0.34727 z m -140.22917,-2.11666 c 0.0127,-0.30823 0.0754,-0.37092 0.15986,-0.15985 0.0764,0.19099 0.067,0.41919 -0.0209,0.50711 -0.0879,0.0879 -0.15046,-0.0683 -0.13897,-0.34726 z m 29.04953,-0.0441 c -0.3291,-0.41964 -0.31975,-0.429 0.0999,-0.0999 0.25466,0.19971 0.46302,0.40807 0.46302,0.46302 0,0.21776 -0.21727,0.0776 -0.56292,-0.36313 z m 111.44422,0.0441 c 0.0127,-0.30823 0.0754,-0.37092 0.15986,-0.15985 0.0764,0.19099 0.067,0.41919 -0.0209,0.50711 -0.0879,0.0879 -0.15046,-0.0683 -0.13897,-0.34726 z m -29.65422,0.0544 c 0,-0.0549 0.20836,-0.2633 0.46302,-0.46302 0.41965,-0.32911 0.429,-0.31975 0.0999,0.0999 -0.34565,0.44073 -0.56292,0.58088 -0.56292,0.36312 z m -111.07342,-2.67823 c 0.005,-0.43656 0.0647,-0.58312 0.13178,-0.32569 0.0671,0.25743 0.0627,0.61462 -0.01,0.79375 -0.0725,0.17913 -0.12736,-0.0315 -0.12197,-0.46806 z m 141.02292,0 c 0.005,-0.43656 0.0647,-0.58312 0.13177,-0.32569 0.0671,0.25743 0.0627,0.61462 -0.01,0.79375 -0.0725,0.17913 -0.12736,-0.0315 -0.12197,-0.46806 z m -141.2777,-3.30729 c 0,-0.50932 0.0544,-0.71768 0.121,-0.46302 0.0666,0.25466 0.0666,0.67138 0,0.92604 -0.0666,0.25466 -0.121,0.0463 -0.121,-0.46302 z m 141.55209,0 c 0,-0.50932 0.0544,-0.71768 0.121,-0.46302 0.0666,0.25466 0.0666,0.67138 0,0.92604 -0.0666,0.25466 -0.121,0.0463 -0.121,-0.46302 z m -141.79607,-5.42396 c 0.001,-0.87312 0.0509,-1.19841 0.10977,-0.72286 0.0589,0.47555 0.0577,1.18992 -0.003,1.5875 -0.0604,0.39757 -0.10855,0.008 -0.10707,-0.86464 z m 142.08125,0 c 10e-4,-0.87312 0.0509,-1.19841 0.10977,-0.72286 0.0589,0.47555 0.0577,1.18992 -0.003,1.5875 -0.0604,0.39757 -0.10855,0.008 -0.10707,-0.86464 z M 438.84295,282.87213 c 0,-8.65849 0.0334,-12.2006 0.0742,-7.87135 0.0408,4.32924 0.0408,11.41346 0,15.74271 -0.0408,4.32924 -0.0742,0.78713 -0.0742,-7.87136 z m 142.61029,0 c 0,-8.51297 0.0334,-11.99555 0.0743,-7.73906 0.0409,4.25648 0.0409,11.22164 0,15.47812 -0.0409,4.25649 -0.0743,0.77391 -0.0743,-7.73906 z m -124.45726,8.84149 c 0.0127,-0.30822 0.0754,-0.37091 0.15985,-0.15985 0.0764,0.191 0.067,0.4192 -0.0209,0.50712 -0.0879,0.0879 -0.15045,-0.0683 -0.13896,-0.34727 z m 105.83333,-1.32291 c 0.0127,-0.30823 0.0754,-0.37092 0.15986,-0.15985 0.0764,0.19099 0.067,0.41919 -0.0209,0.50711 -0.0879,0.0879 -0.15046,-0.0684 -0.13897,-0.34726 z M 456.7314,289.86154 c 0.0127,-0.30822 0.0754,-0.37092 0.15985,-0.15985 0.0764,0.19099 0.067,0.4192 -0.0209,0.50712 -0.0879,0.0879 -0.15045,-0.0684 -0.13896,-0.34727 z m 59.04734,0.23654 c 0.25466,-0.0666 0.67138,-0.0666 0.92604,0 0.25466,0.0666 0.0463,0.121 -0.46302,0.121 -0.50932,0 -0.71768,-0.0545 -0.46302,-0.121 z m 47.31516,-1.82404 c 0.0127,-0.30822 0.0754,-0.37092 0.15985,-0.15985 0.0764,0.19099 0.067,0.4192 -0.0209,0.50712 -0.0879,0.0879 -0.15045,-0.0684 -0.13896,-0.34727 z m -106.59639,-0.7717 c 0.005,-0.43656 0.0647,-0.58312 0.13177,-0.32569 0.0671,0.25743 0.0627,0.61461 -0.01,0.79375 -0.0725,0.17913 -0.12736,-0.0315 -0.12196,-0.46806 z m 49.67006,-1.38906 -0.64144,-0.72761 0.72761,0.64144 c 0.68005,0.59951 0.84894,0.81377 0.64143,0.81377 -0.0474,0 -0.37482,-0.32742 -0.7276,-0.7276 z m 20.26065,-0.33073 c 0.56839,-0.58209 1.09296,-1.05834 1.16572,-1.05834 0.0728,0 -0.33275,0.47625 -0.90114,1.05834 -0.56839,0.58208 -1.09297,1.05833 -1.16573,1.05833 -0.0728,0 0.33276,-0.47625 0.90115,-1.05833 z m 37.00601,-2.77813 c 6.8e-4,-1.45521 0.0451,-2.01676 0.0987,-1.2479 0.0536,0.76886 0.053,1.95949 -10e-4,2.64583 -0.0543,0.68635 -0.0982,0.0573 -0.0975,-1.39793 z M 456.4877,278.37421 c 0,-0.3638 0.06,-0.51263 0.13345,-0.33072 0.0734,0.1819 0.0734,0.47955 0,0.66145 -0.0734,0.1819 -0.13345,0.0331 -0.13345,-0.33073 z m 106.62708,-0.79375 c 0,-0.3638 0.0601,-0.51263 0.13346,-0.33072 0.0734,0.1819 0.0734,0.47955 0,0.66145 -0.0734,0.1819 -0.13346,0.0331 -0.13346,-0.33073 z m -32.54375,-0.79375 c 0,-0.3638 0.0601,-0.51263 0.13346,-0.33072 0.0734,0.1819 0.0734,0.47955 0,0.66145 -0.0734,0.1819 -0.13346,0.0331 -0.13346,-0.33073 z m -73.83963,-0.94809 c 0.0127,-0.30822 0.0754,-0.37091 0.15985,-0.15985 0.0764,0.191 0.067,0.4192 -0.0209,0.50712 -0.0879,0.0879 -0.15045,-0.0683 -0.13896,-0.34727 z m 106.09791,-0.52916 c 0.0127,-0.30823 0.0754,-0.37092 0.15986,-0.15985 0.0764,0.19099 0.067,0.41919 -0.0209,0.50711 -0.0879,0.0879 -0.15046,-0.0684 -0.13897,-0.34726 z m -32.24847,-0.50712 c 0.005,-0.43656 0.0647,-0.58312 0.13177,-0.32569 0.0671,0.25743 0.0627,0.61461 -0.01,0.79375 -0.0725,0.17913 -0.12736,-0.0315 -0.12197,-0.46806 z m -2.41194,-8.48872 c 0.0127,-0.30822 0.0754,-0.37091 0.15985,-0.15985 0.0764,0.191 0.067,0.4192 -0.0209,0.50712 -0.0879,0.0879 -0.15045,-0.0684 -0.13896,-0.34727 z m -53.65563,-1.30086 c 0.002,-0.72761 0.0534,-0.99386 0.11418,-0.59168 0.0608,0.40218 0.0592,0.9975 -0.004,1.32292 -0.0628,0.32542 -0.11256,-0.004 -0.11057,-0.73124 z m 71.15862,0.13229 c 0,-0.50932 0.0545,-0.71768 0.121,-0.46302 0.0665,0.25466 0.0665,0.67138 0,0.92604 -0.0666,0.25466 -0.121,0.0463 -0.121,-0.46302 z m -106.60648,-5.42396 c 0.001,-0.87313 0.0509,-1.19841 0.10977,-0.72287 0.0589,0.47555 0.0577,1.18993 -0.003,1.5875 -0.0604,0.39758 -0.10855,0.008 -0.10707,-0.86463 z m 142.08125,0 c 10e-4,-0.87313 0.0509,-1.19841 0.10977,-0.72287 0.0589,0.47555 0.0577,1.18993 -0.003,1.5875 -0.0604,0.39758 -0.10855,0.008 -0.10707,-0.86463 z m -91.92615,-1.12448 c -0.32911,-0.41964 -0.31975,-0.429 0.0999,-0.0999 0.44073,0.34564 0.58089,0.56291 0.36313,0.56291 -0.0549,0 -0.2633,-0.20836 -0.46302,-0.46302 z m -6.11473,-2.36994 c 0.32912,-0.0633 0.80537,-0.0609 1.05833,0.005 0.25297,0.0662 -0.0163,0.118 -0.59839,0.11506 -0.58209,-0.003 -0.78906,-0.0571 -0.45994,-0.1204 z m -43.79639,-1.92954 c 0,-0.50932 0.0544,-0.71768 0.121,-0.46302 0.0666,0.25466 0.0666,0.67138 0,0.92604 -0.0666,0.25466 -0.121,0.0463 -0.121,-0.46302 z m 141.55209,0 c 0,-0.50932 0.0544,-0.71768 0.121,-0.46302 0.0666,0.25466 0.0666,0.67138 0,0.92604 -0.0666,0.25466 -0.121,0.0463 -0.121,-0.46302 z m -141.29731,-3.30729 c 0.005,-0.43656 0.0647,-0.58312 0.13178,-0.32569 0.0671,0.25743 0.0627,0.61461 -0.01,0.79375 -0.0725,0.17913 -0.12736,-0.0315 -0.12197,-0.46806 z m 141.02292,0 c 0.005,-0.43656 0.0647,-0.58312 0.13177,-0.32569 0.0671,0.25743 0.0627,0.61461 -0.01,0.79375 -0.0725,0.17913 -0.12736,-0.0315 -0.12197,-0.46806 z m -28.92491,-1.38906 c -0.32911,-0.41965 -0.31975,-0.42901 0.0999,-0.0999 0.25466,0.19972 0.46302,0.40808 0.46302,0.46302 0,0.21776 -0.21727,0.0776 -0.56291,-0.36312 z m -111.86412,-1.27882 c 0.0127,-0.30823 0.0754,-0.37092 0.15986,-0.15985 0.0764,0.19099 0.067,0.41919 -0.0209,0.50711 -0.0879,0.0879 -0.15046,-0.0684 -0.13897,-0.34726 z m 140.49375,0 c 0.0127,-0.30823 0.0754,-0.37092 0.15986,-0.15985 0.0764,0.19099 0.067,0.41919 -0.0209,0.50711 -0.0879,0.0879 -0.15046,-0.0684 -0.13897,-0.34726 z m -29.95255,-0.30868 c -0.32911,-0.41965 -0.31975,-0.42901 0.0999,-0.0999 0.25467,0.19972 0.46302,0.40808 0.46302,0.46302 0,0.21776 -0.21727,0.0776 -0.56291,-0.36312 z m -80.39959,-0.72761 c 0.34178,-0.3638 0.68094,-0.66146 0.7537,-0.66146 0.0728,0 -0.14734,0.29766 -0.48911,0.66146 -0.34178,0.36381 -0.68094,0.66146 -0.7537,0.66146 -0.0728,0 0.14734,-0.29765 0.48911,-0.66146 z m -29.87702,-1.08038 c 0.0127,-0.30822 0.0754,-0.37092 0.15985,-0.15985 0.0764,0.19099 0.067,0.4192 -0.0209,0.50712 -0.0879,0.0879 -0.15045,-0.0684 -0.13896,-0.34727 z m 139.96458,0 c 0.0127,-0.30822 0.0754,-0.37092 0.15985,-0.15985 0.0764,0.19099 0.067,0.4192 -0.0209,0.50712 -0.0879,0.0879 -0.15045,-0.0684 -0.13896,-0.34727 z m -32.3338,-1.10243 c -0.32911,-0.41964 -0.31975,-0.429 0.0999,-0.0999 0.25466,0.19971 0.46302,0.40807 0.46302,0.46302 0,0.21776 -0.21727,0.0776 -0.56291,-0.36313 z m -73.38813,-2.18281 c 0.26339,-0.29104 0.53842,-0.52917 0.61118,-0.52917 0.0728,0 -0.0832,0.23813 -0.3466,0.52917 -0.26339,0.29104 -0.53842,0.52916 -0.61118,0.52916 -0.0728,0 0.0832,-0.23812 0.3466,-0.52916 z m 70.47771,-0.46302 c -0.32911,-0.41965 -0.31975,-0.42901 0.0999,-0.0999 0.44073,0.34565 0.58089,0.56292 0.36313,0.56292 -0.0549,0 -0.2633,-0.20836 -0.46302,-0.46302 z m -69.0225,-0.69521 c 0,-0.0549 0.20836,-0.2633 0.46302,-0.46302 0.41964,-0.32911 0.429,-0.31975 0.0999,0.0999 -0.34564,0.44073 -0.56291,0.58089 -0.56291,0.36313 z m 67.435,-0.62771 c -0.32911,-0.41964 -0.31975,-0.429 0.0999,-0.0999 0.44073,0.34564 0.58089,0.56291 0.36313,0.56291 -0.0549,0 -0.2633,-0.20836 -0.46302,-0.46302 z m -23.82836,-10.83022 c 0.19099,-0.0764 0.4192,-0.067 0.50712,0.0209 0.0879,0.0879 -0.0684,0.15045 -0.34727,0.13896 -0.30822,-0.0127 -0.37092,-0.0754 -0.15985,-0.15985 z m -1.5875,-0.26458 c 0.19099,-0.0764 0.4192,-0.067 0.50712,0.0209 0.0879,0.0879 -0.0684,0.15045 -0.34727,0.13896 -0.30822,-0.0127 -0.37092,-0.0754 -0.15985,-0.15985 z m -14.02292,-0.26459 c 0.191,-0.0764 0.4192,-0.067 0.50712,0.0209 0.0879,0.0879 -0.0684,0.15046 -0.34727,0.13897 -0.30822,-0.0127 -0.37091,-0.0754 -0.15985,-0.15986 z m 11.90625,0 c 0.191,-0.0764 0.4192,-0.067 0.50712,0.0209 0.0879,0.0879 -0.0684,0.15046 -0.34727,0.13897 -0.30822,-0.0127 -0.37091,-0.0754 -0.15985,-0.15986 z m -8.74778,-0.27056 c 0.32742,-0.0631 0.8632,-0.0631 1.19062,0 0.32742,0.0631 0.0595,0.11466 -0.59531,0.11466 -0.65485,0 -0.92274,-0.0516 -0.59531,-0.11466 z m 5.02708,0 c 0.32742,-0.0631 0.8632,-0.0631 1.19062,0 0.32743,0.0631 0.0595,0.11466 -0.59531,0.11466 -0.65484,0 -0.92273,-0.0516 -0.59531,-0.11466 z m -63.96302,-4.14651 c 0,-0.0549 0.20836,-0.2633 0.46302,-0.46302 0.41964,-0.32911 0.429,-0.31975 0.0999,0.0999 -0.34564,0.44073 -0.56291,0.58088 -0.56291,0.36312 z m 123.79125,-0.36312 c -0.32911,-0.41965 -0.31975,-0.42901 0.0999,-0.0999 0.25467,0.19972 0.46302,0.40808 0.46302,0.46302 0,0.21776 -0.21727,0.0776 -0.56291,-0.36312 z m -120.08709,-3.34104 c 0,-0.0549 0.20836,-0.26331 0.46303,-0.46302 0.41964,-0.32911 0.429,-0.31975 0.0999,0.0999 -0.34564,0.44073 -0.56292,0.58089 -0.56292,0.36313 z m 116.38292,-0.36313 c -0.3291,-0.41964 -0.31975,-0.429 0.0999,-0.0999 0.25466,0.19971 0.46302,0.40807 0.46302,0.46302 0,0.21776 -0.21727,0.0776 -0.56292,-0.36313 z m -17.74294,-7.65522 c 0.19099,-0.0764 0.4192,-0.067 0.50712,0.0209 0.0879,0.0879 -0.0684,0.15045 -0.34727,0.13896 -0.30822,-0.0127 -0.37092,-0.0754 -0.15985,-0.15985 z m -79.11042,-0.26458 c 0.191,-0.0764 0.4192,-0.067 0.50712,0.0209 0.0879,0.0879 -0.0684,0.15045 -0.34727,0.13896 -0.30822,-0.0127 -0.37091,-0.0754 -0.15985,-0.15985 z m 77.52292,0 c 0.19099,-0.0764 0.4192,-0.067 0.50712,0.0209 0.0879,0.0879 -0.0684,0.15045 -0.34727,0.13896 -0.30822,-0.0127 -0.37092,-0.0754 -0.15985,-0.15985 z m -73.83529,-0.52366 c 0.1819,-0.0734 0.47956,-0.0734 0.66146,0 0.1819,0.0734 0.0331,0.13346 -0.33073,0.13346 -0.3638,0 -0.51263,-0.0601 -0.33073,-0.13346 z m 70.13112,-0.006 c 0.191,-0.0764 0.4192,-0.067 0.50712,0.0209 0.0879,0.0879 -0.0684,0.15045 -0.34727,0.13896 -0.30822,-0.0127 -0.37091,-0.0754 -0.15985,-0.15985 z m -67.74987,-0.25907 c 0.1819,-0.0734 0.47956,-0.0734 0.66146,0 0.1819,0.0734 0.0331,0.13345 -0.33073,0.13345 -0.3638,0 -0.51263,-0.06 -0.33073,-0.13345 z m 65.0875,0 c 0.1819,-0.0734 0.47956,-0.0734 0.66146,0 0.1819,0.0734 0.0331,0.13345 -0.33073,0.13345 -0.3638,0 -0.51263,-0.06 -0.33073,-0.13345 z m -61.78021,-0.27174 c 0.25467,-0.0665 0.67138,-0.0665 0.92605,0 0.25466,0.0666 0.0463,0.121 -0.46303,0.121 -0.50932,0 -0.71768,-0.0545 -0.46302,-0.121 z m 58.20834,0 c 0.25466,-0.0665 0.67138,-0.0665 0.92604,0 0.25466,0.0666 0.0463,0.121 -0.46302,0.121 -0.50932,0 -0.71768,-0.0545 -0.46302,-0.121 z m -53.57339,-0.27395 c 0.47555,-0.0589 1.18992,-0.0577 1.5875,0.003 0.39758,0.0604 0.008,0.10855 -0.86463,0.10707 -0.87313,-0.001 -1.19842,-0.0509 -0.72287,-0.10977 z m 48.41875,0 c 0.47555,-0.0589 1.18992,-0.0577 1.5875,0.003 0.39758,0.0604 0.008,0.10855 -0.86463,0.10707 -0.87313,-0.001 -1.19842,-0.0509 -0.72287,-0.10977 z m -40.2214,-0.26789 c 0.76398,-0.0534 2.01414,-0.0534 2.77812,0 0.76399,0.0534 0.13891,0.0972 -1.38906,0.0972 -1.52797,0 -2.15305,-0.0437 -1.38906,-0.0972 z m 30.69166,0 c 0.76399,-0.0534 2.01414,-0.0534 2.77813,0 0.76398,0.0534 0.1389,0.0972 -1.38907,0.0972 -1.52796,0 -2.15304,-0.0437 -1.38906,-0.0972 z"
       id="path13" /><path
       style="fill:#cc0000;fill-opacity:1"
       d="m 498.31624,353.85057 c 0.69122,-0.0545 1.82232,-0.0545 2.51354,0 0.69122,0.0545 0.12568,0.0991 -1.25677,0.0991 -1.38245,0 -1.948,-0.0446 -1.25677,-0.0991 z m 22.0868,0.004 c 0.4697,-0.0584 1.30314,-0.0594 1.85209,-0.002 0.54895,0.0573 0.16465,0.10509 -0.854,0.10627 -1.01864,10e-4 -1.46778,-0.0457 -0.99809,-0.10414 z m -36.96962,-0.36002 c -17.20864,-1.00589 -26.26837,-3.99008 -33.22095,-10.94265 -6.56498,-6.56499 -9.35672,-14.43053 -10.75817,-30.31054 -0.48452,-5.49012 -0.47854,-52.97748 0.007,-58.7375 1.15025,-13.63446 3.35875,-20.97908 8.26698,-27.49279 4.65204,-6.17372 11.56793,-10.11047 21.15266,-12.04077 8.45589,-1.70296 16.4395,-2.11134 41.275,-2.11134 22.92639,0 30.52591,0.3125 38.49688,1.58303 9.6065,1.53123 16.2454,4.54975 21.44699,9.75134 6.33845,6.33844 9.17948,13.97679 10.59898,28.49628 0.60678,6.20643 0.86503,47.73531 0.29182,46.92571 -0.3249,-0.45888 -9.52621,-16.38743 -21.32112,-36.90938 -1.96548,-3.41973 -3.67072,-6.25739 -3.78941,-6.3059 -0.11869,-0.0485 -0.21581,-0.18981 -0.21581,-0.314 0,-0.37229 -2.33878,-3.6862 -4.19766,-5.9478 -7.36062,-8.95534 -17.41363,-15.31198 -28.62302,-18.09868 -16.32871,-4.05939 -33.57935,-0.19541 -46.82794,10.48902 -2.52507,2.03637 -6.81131,6.48301 -8.7927,9.12176 -4.83422,6.43805 -8.16727,13.8434 -9.85848,21.90352 -0.56407,2.68828 -0.72162,4.30616 -0.84177,8.64405 -0.16285,5.87963 0.0745,8.6706 1.1521,13.55004 1.21647,5.50802 3.94605,12.18093 6.72284,16.43508 0.6174,0.94588 1.35645,2.13651 1.64233,2.64583 0.42786,0.76227 11.34847,19.58135 20.9961,36.18177 l 2.19118,3.77031 -1.11117,-0.0388 c -0.61115,-0.0213 -2.71852,-0.13276 -4.68306,-0.24759 z m 49.42748,0.10565 c 0.19099,-0.0764 0.4192,-0.067 0.50712,0.0209 0.0879,0.0879 -0.0684,0.15046 -0.34727,0.13897 -0.30822,-0.0127 -0.37092,-0.0754 -0.15985,-0.15986 z m 37.09127,-11.06405 c 0.79043,-0.80036 1.49667,-1.45521 1.56943,-1.45521 0.0728,0 -0.51442,0.65485 -1.30484,1.45521 -0.79042,0.80037 -1.49666,1.45521 -1.56943,1.45521 -0.0728,0 0.51442,-0.65484 1.30484,-1.45521 z m 1.85209,-2.08427 c 0,-0.0549 0.20836,-0.2633 0.46302,-0.46302 0.41964,-0.32911 0.429,-0.31975 0.0999,0.0999 -0.34564,0.44073 -0.56291,0.58088 -0.56291,0.36312 z m 7.16464,-15.66486 c 0.0127,-0.30822 0.0754,-0.37092 0.15985,-0.15985 0.0764,0.19099 0.067,0.4192 -0.0209,0.50712 -0.0879,0.0879 -0.15045,-0.0684 -0.13896,-0.34727 z m 0.26458,-1.32292 c 0.0127,-0.30822 0.0754,-0.37091 0.15985,-0.15985 0.0764,0.191 0.067,0.4192 -0.0209,0.50712 -0.0879,0.0879 -0.15045,-0.0683 -0.13896,-0.34727 z m 0.26458,-1.32291 c 0.0127,-0.30823 0.0754,-0.37092 0.15986,-0.15985 0.0764,0.19099 0.067,0.41919 -0.0209,0.50711 -0.0879,0.0879 -0.15046,-0.0684 -0.13897,-0.34726 z m 0.28547,-1.69775 c 0,-0.3638 0.0601,-0.51263 0.13346,-0.33072 0.0734,0.1819 0.0734,0.47955 0,0.66145 -0.0734,0.1819 -0.13346,0.0331 -0.13346,-0.33073 z m 0.26459,-1.85208 c 0,-0.3638 0.06,-0.51263 0.13345,-0.33073 0.0734,0.1819 0.0734,0.47956 0,0.66146 -0.0734,0.1819 -0.13345,0.0331 -0.13345,-0.33073 z m 0.27439,-2.24896 c 0.005,-0.43656 0.0647,-0.58312 0.13177,-0.32569 0.0671,0.25743 0.0627,0.61462 -0.01,0.79375 -0.0725,0.17913 -0.12736,-0.0315 -0.12196,-0.46806 z m 0.27438,-3.04271 c 0,-0.50932 0.0544,-0.71768 0.121,-0.46302 0.0666,0.25467 0.0666,0.67138 0,0.92605 -0.0666,0.25466 -0.121,0.0463 -0.121,-0.46303 z m 0.27526,-3.70416 c 0,-0.65485 0.0516,-0.92274 0.11467,-0.59531 0.0631,0.32742 0.0631,0.8632 0,1.19062 -0.0631,0.32742 -0.11467,0.0595 -0.11467,-0.59531 z m 0.27935,-6.74688 c 10e-4,-1.01864 0.049,-1.40294 0.10627,-0.85399 0.0573,0.54895 0.0563,1.38238 -0.002,1.85208 -0.0584,0.4697 -0.10531,0.0206 -0.10413,-0.99809 z"
       id="path12" /><path
       style="fill:#cc0000;fill-opacity:1"
       d="m 495.61722,353.80796 -6.46933,-0.15979 -3.39507,-5.82083 c -1.8673,-3.20146 -3.57694,-6.17802 -3.79921,-6.61458 l -0.40412,-0.79375 0.53452,0.66145 c 0.50021,0.61899 0.52507,0.62453 0.38719,0.0862 -0.11675,-0.45581 0.0365,-0.66957 0.73817,-1.02941 0.48703,-0.24978 2.9666,-1.65611 5.51015,-3.12516 3.18436,-1.83917 4.88628,-2.67218 5.46476,-2.67475 0.46207,-0.002 0.77424,0.10292 0.69372,0.23328 -0.0826,0.13368 0.18804,0.15902 0.62065,0.0581 0.59698,-0.13924 0.67907,-0.11387 0.37019,0.11442 -0.31717,0.23443 -0.25236,0.27028 0.32272,0.17855 0.44257,-0.0706 0.65591,-0.0117 0.55418,0.15288 -0.10606,0.17161 0.13891,0.2068 0.68261,0.0981 0.60156,-0.12031 0.79382,-0.0819 0.66146,0.1323 -0.13235,0.21415 0.0599,0.2526 0.66146,0.13229 0.60156,-0.12031 0.79381,-0.0819 0.66146,0.13229 -0.13209,0.21372 0.0573,0.25313 0.6483,0.13492 0.45919,-0.0918 0.83489,-0.0594 0.83489,0.0722 0,0.13154 0.38696,0.23993 0.8599,0.24086 0.47294,9.4e-4 1.39568,0.0628 2.05052,0.13743 2.52131,0.28743 10.79029,0.12726 13.60819,-0.26359 3.20445,-0.44447 7.69512,-1.54035 10.73348,-2.61935 2.98975,-1.06174 8.58047,-3.8563 11.1125,-5.55467 6.76883,-4.54022 12.95366,-10.96736 16.65885,-17.31154 1.47275,-2.52169 4.20339,-8.17068 4.03229,-8.34177 -0.078,-0.078 -0.007,-0.14184 0.15854,-0.14184 0.17146,0 0.22787,-0.18896 0.13143,-0.44028 -0.12347,-0.32174 -0.0735,-0.38129 0.18555,-0.22118 0.25907,0.16012 0.30903,0.10057 0.18556,-0.22118 -0.093,-0.24248 -0.0411,-0.44028 0.11564,-0.44028 0.15652,0 0.21605,-0.17859 0.13229,-0.39687 -0.0838,-0.21828 -0.0289,-0.39688 0.12182,-0.39688 0.15908,0 0.19922,-0.23595 0.0956,-0.5623 -0.11762,-0.37057 -0.0812,-0.5022 0.1067,-0.38605 0.34829,0.21525 0.69722,-1.00535 0.41701,-1.45874 -0.13393,-0.2167 -0.0867,-0.25168 0.14574,-0.108 0.25873,0.1599 0.31105,0.041 0.2114,-0.48028 -0.081,-0.42392 -0.0297,-0.62928 0.13229,-0.52917 0.16198,0.10011 0.21333,-0.10525 0.13229,-0.52917 -0.0728,-0.38102 -0.0306,-0.62982 0.0939,-0.55287 0.1245,0.0769 0.22636,-0.0202 0.22636,-0.21577 0,-0.30503 2.31345,-1.70229 10.34054,-6.24541 l 1.55716,-0.88131 -0.42283,-0.83848 c -1.11729,-2.21565 0.43184,0.2864 3.68117,5.94556 l 3.59137,6.25488 -0.24409,6.01874 c -0.68532,16.89789 -2.56711,25.3735 -7.21757,32.50793 -4.83527,7.41796 -12.01541,11.90549 -22.45154,14.03203 -3.3152,0.67553 -9.86438,1.43647 -13.83733,1.60773 -2.0373,0.0878 -4.24582,0.20601 -4.90784,0.26263 -2.3001,0.19671 -30.58482,0.31939 -37.01566,0.16055 z m -12.1838,-10.82484 c 0,-0.11771 -0.18052,-0.44513 -0.40117,-0.72761 -0.372,-0.47624 -0.37854,-0.46068 -0.0898,0.21402 0.31152,0.728 0.49099,0.91573 0.49099,0.51359 z m 91.67813,-54.02557 c -0.22576,-0.43656 -0.47,-0.79375 -0.54276,-0.79375 -0.0728,0 0.0524,0.35719 0.27818,0.79375 0.22575,0.43656 0.46999,0.79375 0.54275,0.79375 0.0728,0 -0.0524,-0.35719 -0.27817,-0.79375 z m -93.8737,51.13073 c -0.0606,-0.10914 -0.44439,-0.79375 -0.85291,-1.52136 -0.40852,-0.7276 -0.61994,-1.20385 -0.46982,-1.05833 0.38284,0.3711 1.74718,2.77812 1.57469,2.77812 -0.078,0 -0.19139,-0.0893 -0.25196,-0.19843 z m 0.24247,-0.61363 c -0.26384,-0.44664 -0.43834,-0.84893 -0.38778,-0.89399 0.73161,-0.65197 9.23177,-5.23616 9.61693,-5.18647 0.29104,0.0375 0.78568,0.0857 1.09921,0.10696 0.31353,0.0213 0.50413,0.14535 0.42356,0.27571 -0.083,0.13434 0.18583,0.15661 0.62058,0.0514 0.76222,-0.18447 0.76334,-0.18297 0.17646,0.2377 -0.32484,0.23283 -1.27734,0.81547 -2.11667,1.29475 -0.83933,0.47928 -3.10676,1.7837 -5.03874,2.89871 -1.93197,1.11501 -3.60294,2.02729 -3.71326,2.02729 -0.11033,0 -0.41646,-0.36543 -0.68029,-0.81206 z m -2.28023,-2.8921 c -0.15576,-0.29104 -0.22367,-0.52917 -0.15091,-0.52917 0.0728,0 0.25973,0.23813 0.41549,0.52917 0.15577,0.29104 0.22368,0.52916 0.15091,0.52916 -0.0728,0 -0.25973,-0.23812 -0.41549,-0.52916 z m -0.92604,-1.5875 c -0.22576,-0.43656 -0.35093,-0.79375 -0.27817,-0.79375 0.0728,0 0.317,0.35719 0.54275,0.79375 0.22576,0.43656 0.35094,0.79375 0.27818,0.79375 -0.0728,0 -0.317,-0.35719 -0.54276,-0.79375 z m -4.78764,-12.76615 -0.50403,-0.59531 0.59532,0.50403 c 0.55944,0.47366 0.71576,0.68659 0.50402,0.68659 -0.0502,0 -0.31809,-0.26789 -0.59531,-0.59531 z m 36.35574,-1.96668 c 0.19099,-0.0764 0.4192,-0.067 0.50712,0.0209 0.0879,0.0879 -0.0684,0.15046 -0.34727,0.13897 -0.30822,-0.0127 -0.37092,-0.0754 -0.15985,-0.15986 z m 6.26732,-2.46509 c 0.26339,-0.29104 0.53842,-0.52917 0.61118,-0.52917 0.0728,0 -0.0832,0.23813 -0.3466,0.52917 -0.26339,0.29104 -0.53842,0.52917 -0.61118,0.52917 -0.0728,0 0.0832,-0.23813 0.3466,-0.52917 z m -49.8474,-3.51776 c -0.33468,-0.55729 -0.32904,-0.56293 0.12656,-0.12656 0.26226,0.2512 0.41989,0.51367 0.35028,0.58328 -0.0696,0.0696 -0.28419,-0.13592 -0.47684,-0.45672 z m 96.70807,-21.41922 c 0.0924,-0.61846 0.30215,-1.25671 0.46615,-1.41832 0.164,-0.16162 2.32224,-1.45138 4.79609,-2.86613 2.47386,-1.41476 4.59825,-2.66873 4.72087,-2.7866 0.12262,-0.11788 0.0887,-0.46523 -0.0755,-0.7719 -0.16412,-0.30666 -0.23774,-0.55757 -0.16359,-0.55757 0.0741,0 0.32629,0.37029 0.56033,0.82287 0.23403,0.45258 0.29662,0.74321 0.13908,0.64585 -0.41056,-0.25374 -0.35315,0.19401 0.10203,0.79582 0.21365,0.28247 0.39224,0.64796 0.39687,0.81219 0.005,0.16424 -1.15244,0.94729 -2.57127,1.74012 -1.41883,0.79283 -3.88045,2.1765 -5.47028,3.07483 -1.58982,0.89833 -2.93068,1.63332 -2.97969,1.63332 -0.049,0 -0.0135,-0.50601 0.0789,-1.12448 z m -45.71966,-2.76043 c 0.191,-0.0764 0.4192,-0.067 0.50712,0.0209 0.0879,0.0879 -0.0684,0.15046 -0.34727,0.13897 -0.30822,-0.0127 -0.37091,-0.0754 -0.15985,-0.15986 z m 46.108,-4.20693 c 0.0127,-0.30822 0.0754,-0.37092 0.15985,-0.15985 0.0764,0.19099 0.067,0.4192 -0.0209,0.50712 -0.0879,0.0879 -0.15045,-0.0684 -0.13896,-0.34727 z m 8.57807,-2.49149 c -0.22576,-0.43656 -0.35093,-0.79375 -0.27817,-0.79375 0.0728,0 0.317,0.35719 0.54275,0.79375 0.22576,0.43656 0.35094,0.79375 0.27818,0.79375 -0.0728,0 -0.317,-0.35719 -0.54276,-0.79375 z m -0.92604,-1.5875 c -0.15576,-0.29104 -0.22367,-0.52917 -0.15091,-0.52917 0.0728,0 0.25973,0.23813 0.41549,0.52917 0.15576,0.29104 0.22367,0.52916 0.15091,0.52916 -0.0728,0 -0.25973,-0.23812 -0.41549,-0.52916 z m -7.63114,-1.85209 c 0,-0.3638 0.0601,-0.51263 0.13345,-0.33072 0.0734,0.1819 0.0734,0.47955 0,0.66145 -0.0734,0.1819 -0.13345,0.0331 -0.13345,-0.33073 z m -20.44844,-21.10052 c -0.32911,-0.41964 -0.31975,-0.429 0.0999,-0.0999 0.44073,0.34564 0.58089,0.56291 0.36313,0.56291 -0.0549,0 -0.2633,-0.20835 -0.46302,-0.46302 z m 14.85041,-0.0661 c -0.15576,-0.29104 -0.22367,-0.52917 -0.15091,-0.52917 0.0728,0 0.25973,0.23813 0.41549,0.52917 0.15577,0.29104 0.22368,0.52916 0.15091,0.52916 -0.0728,0 -0.25973,-0.23812 -0.41549,-0.52916 z m -8.50041,-12.10469 c -0.32911,-0.41964 -0.31975,-0.429 0.0999,-0.0999 0.25466,0.19971 0.46302,0.40807 0.46302,0.46302 0,0.21776 -0.21727,0.0776 -0.56291,-0.36313 z"
       id="path11" /><path
       style="fill:#cc0000;fill-opacity:1"
       d="m 482.94243,342.46953 c -0.28872,-0.6747 -0.28218,-0.69026 0.0898,-0.21402 0.22065,0.28248 0.40117,0.6099 0.40117,0.72761 0,0.40214 -0.17947,0.21441 -0.49099,-0.51359 z m -1.03787,-1.71979 c -7.16923,-12.00103 -12.32459,-20.98548 -12.29445,-21.42604 0.0172,-0.2518 -0.0986,-0.53809 -0.25732,-0.6362 -0.17281,-0.1068 -0.21288,-0.0558 -0.0998,0.12708 0.10383,0.16801 0.12642,0.30547 0.0502,0.30547 -0.0762,0 -0.2646,-0.23545 -0.41861,-0.52321 -0.23831,-0.44529 -0.21015,-0.49702 0.18913,-0.34734 0.41035,0.15383 0.42394,0.1203 0.10843,-0.26763 -0.19839,-0.24392 -0.48467,-0.36688 -0.63619,-0.27324 -0.15998,0.0989 -0.19633,0.0422 -0.0867,-0.1352 0.10383,-0.16801 0.0669,-0.30547 -0.0821,-0.30547 -0.14899,0 -0.3969,-0.23544 -0.5509,-0.52321 -0.23043,-0.43055 -0.20663,-0.49505 0.13439,-0.36419 0.22792,0.0875 0.36739,0.20604 0.30992,0.26351 -0.0575,0.0575 0.97836,1.24817 2.30183,2.646 6.88326,7.27001 14.89694,12.2254 24.37046,15.06985 1.60073,0.48062 2.73144,0.87968 2.5127,0.88679 -0.21874,0.007 -1.20057,-0.21667 -2.18183,-0.49729 l -1.78411,-0.51021 -4.56505,2.65435 c -2.51077,1.45989 -5.02322,2.8885 -5.58322,3.17468 -0.77377,0.39543 -0.98612,0.64288 -0.88466,1.03086 0.19145,0.7321 0.0347,0.63293 -0.55207,-0.34936 z m 3.96931,-2.49032 c 1.93198,-1.11501 4.22705,-2.43331 5.10018,-2.92955 0.87312,-0.49623 1.67762,-0.98971 1.78777,-1.09661 0.11014,-0.10691 -0.37429,-0.3781 -1.07651,-0.60267 l -1.27678,-0.40829 -4.61203,2.63833 c -2.53662,1.45108 -4.6534,2.67514 -4.70396,2.72014 -0.14411,0.12825 0.84366,1.70594 1.06807,1.70594 0.11032,0 1.78129,-0.91228 3.71326,-2.02729 z m 19.99953,-1.85761 c 0.19099,-0.0764 0.4192,-0.067 0.50712,0.0209 0.0879,0.0879 -0.0684,0.15045 -0.34727,0.13896 -0.30822,-0.0127 -0.37092,-0.0754 -0.15985,-0.15985 z m -4.7625,-0.52917 c 0.19099,-0.0764 0.4192,-0.067 0.50712,0.0209 0.0879,0.0879 -0.0684,0.15045 -0.34727,0.13896 -0.30822,-0.0127 -0.37092,-0.0754 -0.15985,-0.15985 z m -1.60404,-0.25907 c 0.1819,-0.0734 0.47956,-0.0734 0.66146,0 0.1819,0.0734 0.0331,0.13345 -0.33073,0.13345 -0.3638,0 -0.51263,-0.0601 -0.33073,-0.13345 z m -1.32291,-0.26458 c 0.1819,-0.0734 0.47955,-0.0734 0.66145,0 0.18191,0.0734 0.0331,0.13345 -0.33073,0.13345 -0.3638,0 -0.51263,-0.0601 -0.33072,-0.13345 z m 8.98207,-15.53727 c -1.36431,-0.5075 -2.94689,-1.6358 -3.70303,-2.64007 -1.18496,-1.57379 -7.61692,-12.88196 -7.46601,-13.12614 0.0832,-0.13461 -0.0974,-0.37784 -0.40139,-0.54052 -0.30396,-0.16267 -0.50652,-0.43416 -0.45014,-0.60331 0.0564,-0.16914 -0.0899,-0.4885 -0.32517,-0.70969 -0.23523,-0.22118 -0.37686,-0.3759 -0.31474,-0.34382 0.0621,0.0321 0.42404,-0.1558 0.80427,-0.41751 0.38023,-0.26171 4.71485,-2.77318 9.63249,-5.58105 4.91765,-2.80786 8.88966,-5.15672 8.8267,-5.21968 -0.096,-0.096 -10.4352,5.71647 -16.97412,9.54246 -1.73433,1.01477 -2.94441,1.43911 -2.62359,0.92 0.1897,-0.30694 -0.54881,-1.33361 -0.78756,-1.09487 -0.10378,0.10378 -0.10263,-0.0356 0.003,-0.30967 0.14333,-0.37351 0.10345,-0.4441 -0.15919,-0.28178 -0.23297,0.14398 -0.28724,0.11434 -0.16193,-0.0884 0.22242,-0.35987 -0.46416,-1.4478 -0.73976,-1.1722 -0.10378,0.10378 -0.10264,-0.0356 0.003,-0.30967 0.1468,-0.38256 0.10394,-0.44888 -0.18446,-0.2854 -0.2928,0.16598 -0.28812,0.12263 0.0212,-0.19649 0.21829,-0.22521 3.61179,-2.24771 7.54112,-4.49444 8.36825,-4.78485 8.99282,-5.11966 8.71648,-4.67253 -0.14518,0.2349 -0.0726,0.28067 0.2492,0.15717 0.25855,-0.0992 0.38742,-0.0665 0.29934,0.0761 -0.20624,0.33371 1.39275,1.1452 1.88461,0.95646 0.24559,-0.0942 0.31834,-0.0377 0.19933,0.15482 -0.12747,0.20625 -0.005,0.25549 0.3835,0.15394 0.314,-0.0821 0.51039,-0.0514 0.43643,0.0683 -0.074,0.11967 0.46751,0.34669 1.20328,0.50449 1.66434,0.35694 2.10024,0.36209 1.5763,0.0186 -0.29269,-0.19186 -0.18851,-0.22892 0.39687,-0.14116 2.3294,0.34921 3.42636,0.39671 3.04271,0.13176 -0.29228,-0.20185 -0.13109,-0.23594 0.61164,-0.12935 0.72138,0.10353 0.95497,0.0581 0.82044,-0.15958 -0.13274,-0.21477 0.0182,-0.25256 0.51283,-0.12841 0.38551,0.0968 0.70092,0.0827 0.70092,-0.0313 0,-0.11396 0.50602,-0.42523 1.12448,-0.6917 0.61847,-0.26647 1.82223,-0.95928 2.67503,-1.53959 0.8528,-0.58031 1.45502,-0.89639 1.33827,-0.7024 -0.17088,0.28393 -0.12556,0.28237 0.23248,-0.008 0.24461,-0.19839 0.36814,-0.48468 0.27449,-0.63619 -0.0936,-0.15152 -0.0487,-0.20037 0.0999,-0.10856 0.14855,0.0918 0.49437,-0.0888 0.76848,-0.40147 0.27411,-0.31263 0.32921,-0.46881 0.12245,-0.34709 -0.22692,0.1336 -0.17448,-0.0473 0.13229,-0.45642 0.27953,-0.37276 0.61592,-0.61209 0.74754,-0.53184 0.13163,0.0802 0.15498,0.009 0.0519,-0.15733 -0.10309,-0.16681 0.10398,-0.59465 0.46022,-0.95089 0.3562,-0.3562 0.58089,-0.71439 0.49931,-0.79597 -0.0816,-0.0816 0.0104,-0.14833 0.20445,-0.14833 0.19403,0 0.27908,-0.0737 0.18899,-0.16379 -0.28279,-0.28279 0.34031,-0.69771 5.44099,-3.62308 2.73269,-1.56726 5.10257,-2.76672 5.2664,-2.66547 0.18186,0.1124 0.22435,0.0651 0.1091,-0.12136 -0.10383,-0.168 -0.0627,-0.30546 0.0914,-0.30546 0.39692,0 0.35543,0.19096 -0.29164,1.34228 -0.31451,0.5596 -0.67034,0.95658 -0.79072,0.88218 -0.12038,-0.0744 -0.15001,0.0442 -0.0658,0.26357 0.0879,0.22918 -0.12651,0.67842 -0.50413,1.05604 -0.36146,0.36146 -0.60604,0.70835 -0.54351,0.77087 0.23223,0.23223 -20.78912,36.34266 -21.86946,37.56731 -1.6674,1.89012 -3.32868,2.64151 -6.0816,2.75068 -1.49073,0.0591 -2.5881,-0.037 -3.2549,-0.28501 z m -40.13676,-4.39584 c -0.15576,-0.29104 -0.22367,-0.52917 -0.15091,-0.52917 0.0728,0 0.25973,0.23813 0.41549,0.52917 0.15576,0.29104 0.22367,0.52917 0.15091,0.52917 -0.0728,0 -0.25973,-0.23813 -0.41549,-0.52917 z m 94.19971,-16.45122 c -0.004,-0.0986 0.28944,-1.28926 0.65303,-2.64583 1.18275,-4.41289 1.57414,-7.81628 1.56158,-13.57899 -0.0124,-5.6766 -0.34093,-8.39177 -1.59158,-13.15279 -0.37122,-1.4132 -0.59852,-2.69312 -0.50511,-2.84427 0.0934,-0.15115 0.031,-0.27482 -0.13866,-0.27482 -0.16968,0 -0.23997,-0.17859 -0.15621,-0.39687 0.0838,-0.21828 0.0561,-0.39688 -0.0615,-0.39688 -0.1176,0 -0.34683,-0.29194 -0.50941,-0.64875 -0.25145,-0.55189 -0.23344,-0.62491 0.12061,-0.48905 0.35174,0.13498 0.36901,0.0715 0.11152,-0.40958 -0.16757,-0.3131 -0.24401,-0.56928 -0.16987,-0.56928 0.27119,0 0.86573,1.46598 0.73923,1.82276 -0.0733,0.20681 -0.0113,0.29403 0.14172,0.19943 0.23301,-0.144 12.56556,21.02417 12.80991,21.98754 0.046,0.18123 -0.58847,0.71702 -1.40987,1.19062 -0.8214,0.47361 -3.46293,1.98371 -5.87006,3.35578 l -4.37662,2.49468 -0.44919,1.87095 c -0.3983,1.65899 -0.87722,2.98224 -0.89951,2.48535 z m 4.64199,-6.61335 c 1.58983,-0.89833 4.05145,-2.282 5.47028,-3.07483 1.41883,-0.79283 2.57968,-1.54324 2.57968,-1.66758 0,-0.12433 -0.21015,-0.57164 -0.46701,-0.99401 l -0.46701,-0.76794 -4.71717,2.71781 c -2.59444,1.49479 -4.80984,2.81976 -4.92311,2.94436 -0.20764,0.22841 -0.62097,2.47551 -0.45535,2.47551 0.049,0 1.38987,-0.73499 2.97969,-1.63332 z m -4.02957,-26.29163 c -0.0862,-0.22456 -0.21342,-0.35154 -0.28277,-0.28219 -0.0694,0.0694 -0.0476,0.25309 0.0483,0.40829 0.26089,0.42213 0.41338,0.34012 0.23447,-0.1261 z m 13.00558,22.89787 c -0.22576,-0.43656 -0.35094,-0.79375 -0.27818,-0.79375 0.0728,0 0.317,0.35719 0.54276,0.79375 0.22576,0.43656 0.35093,0.79375 0.27817,0.79375 -0.0728,0 -0.317,-0.35719 -0.54275,-0.79375 z m -44.45,-8.97057 c 0,-0.42267 0.10788,-0.70181 0.23973,-0.62032 0.13792,0.0852 0.1692,-0.29067 0.0736,-0.88516 -0.11307,-0.70351 -0.0853,-0.90665 0.087,-0.63645 0.18469,0.28968 0.26524,0.0753 0.29823,-0.79375 0.0249,-0.65485 0.0329,-1.42875 0.0179,-1.71979 -0.0219,-0.42426 1.31348,-1.28979 6.7355,-4.36563 3.71955,-2.11005 6.85381,-3.87125 6.96503,-3.91379 0.11122,-0.0425 0.27505,0.11249 0.36407,0.34448 0.10586,0.27586 0.057,0.35695 -0.14137,0.23439 -0.20625,-0.12747 -0.25548,-0.005 -0.15393,0.3835 0.0966,0.36946 0.0488,0.50878 -0.13558,0.39484 -0.18191,-0.11243 -0.2219,-0.012 -0.11065,0.27796 0.11741,0.30597 0.0743,0.39225 -0.13229,0.26458 -0.20656,-0.12766 -0.2497,-0.0414 -0.13229,0.26459 0.11741,0.30597 0.0743,0.39224 -0.13229,0.26458 -0.21187,-0.13094 -0.24747,-0.0356 -0.11528,0.30892 0.10518,0.2741 0.10633,0.41345 0.003,0.30967 -0.2756,-0.2756 -0.96218,0.81234 -0.73977,1.17221 0.12532,0.20277 0.0711,0.23241 -0.16192,0.0884 -0.25657,-0.15857 -0.30377,-0.095 -0.17621,0.23745 0.0984,0.25646 0.0662,0.38725 -0.0741,0.30057 -0.33003,-0.20396 -0.87964,0.84785 -0.64306,1.23065 0.12216,0.19765 0.0659,0.22611 -0.16502,0.0834 -0.25657,-0.15857 -0.30376,-0.095 -0.1762,0.23744 0.0984,0.25646 0.0662,0.38725 -0.074,0.30058 -0.33003,-0.20397 -0.87964,0.84784 -0.64306,1.23064 0.11642,0.18837 0.0668,0.2267 -0.13331,0.10302 -0.18751,-0.11589 -1.81081,0.67254 -3.94348,1.91533 -4.18775,2.44038 -6.53083,3.75613 -6.68888,3.75613 -0.061,0 -0.11089,-0.34581 -0.11089,-0.76848 z m -2.18224,-14.97422 c 0.003,-0.58209 0.0571,-0.78906 0.12041,-0.45994 0.0633,0.32912 0.0609,0.80537 -0.005,1.05833 -0.0662,0.25297 -0.118,-0.0163 -0.11507,-0.59839 z m 31.41869,-2.51355 c -0.23846,-0.1541 -0.2711,-0.25809 -0.0818,-0.26053 0.17332,-0.002 0.3887,0.11501 0.47864,0.26053 0.20302,0.32849 0.11142,0.32849 -0.39688,0 z m -0.92604,-1.85208 c -0.22575,-0.43656 -0.35093,-0.79375 -0.27817,-0.79375 0.0728,0 0.317,0.35719 0.54276,0.79375 0.22575,0.43656 0.35093,0.79375 0.27817,0.79375 -0.0728,0 -0.317,-0.35719 -0.54276,-0.79375 z"
       id="path10" /><path
       style="fill:#cc0000;fill-opacity:1"
       d="m 469.29523,318.93302 c -0.14359,-0.37708 -0.1132,-0.40747 0.14811,-0.14811 0.18082,0.17947 0.26211,0.39297 0.18065,0.47443 -0.0815,0.0815 -0.2294,-0.0654 -0.32876,-0.32632 z m -0.70766,-1.20203 c -0.31072,-0.59213 -0.30935,-0.59261 0.25527,-0.0913 0.63065,0.55995 0.68827,0.6866 0.31239,0.6866 -0.1404,0 -0.39585,-0.26789 -0.56766,-0.59531 z m 25.48479,-16.66691 c -2.32265,-3.85652 -9.28559,-16.06557 -9.43195,-16.5383 -0.10137,-0.32742 -0.30238,-0.59532 -0.44668,-0.59532 -0.1443,0 -0.18878,-0.11906 -0.0989,-0.26458 0.0899,-0.14552 0.0374,-0.26458 -0.11667,-0.26458 -0.15411,0 -0.2802,-0.1786 -0.2802,-0.39688 0,-0.21828 -0.12609,-0.39687 -0.2802,-0.39687 -0.15411,0 -0.20661,-0.11906 -0.11668,-0.26459 0.0899,-0.14552 0.0304,-0.26458 -0.13229,-0.26458 -0.1627,0 -0.22491,-0.11472 -0.13825,-0.25493 0.0866,-0.14021 -0.0626,-0.47508 -0.33166,-0.74414 -0.26906,-0.26907 -0.43655,-0.64717 -0.3722,-0.84023 0.0767,-0.23017 3e-5,-0.27872 -0.22278,-0.14102 -0.22259,0.13757 -0.27477,0.1048 -0.15129,-0.095 0.22242,-0.35987 -0.46416,-1.44781 -0.73976,-1.17221 -0.10378,0.10378 -0.10264,-0.0356 0.003,-0.30967 0.13218,-0.34447 0.0966,-0.43986 -0.11528,-0.30892 -0.19959,0.12336 -0.2521,0.0476 -0.15053,-0.21705 0.0858,-0.22357 0.7988,-0.77427 1.58447,-1.22378 0.78566,-0.44952 1.42848,-0.87512 1.42848,-0.94579 0,-0.0707 -0.0893,-0.0789 -0.19844,-0.0183 -0.10914,0.0606 -0.79009,0.45141 -1.51323,0.86852 -1.55599,0.89749 -2.01621,1.00974 -1.79692,0.43828 0.0874,-0.2278 0.0494,-0.34672 -0.0845,-0.26427 -0.13387,0.0825 -0.26749,-0.18443 -0.29693,-0.59308 -0.051,-0.70778 0.27509,-0.93039 6.87916,-4.69611 6.91181,-3.94119 8.02983,-4.52519 7.72796,-4.03677 -0.21706,0.35122 0.36226,1.37705 0.6702,1.18673 0.13655,-0.0844 0.18155,0.0204 0.1,0.23295 -0.0815,0.21252 -0.49946,0.53186 -0.92868,0.70965 -0.42923,0.17779 -0.85774,0.44837 -0.95225,0.60128 -0.0945,0.15292 0.38087,-0.0309 1.05638,-0.40843 0.67552,-0.37756 1.20806,-0.60747 1.18342,-0.51091 -0.1002,0.39273 0.37975,1.36334 0.60524,1.22398 0.13366,-0.0826 0.16431,0.0539 0.0683,0.30414 -0.11741,0.30597 -0.0743,0.39225 0.13229,0.26458 0.19554,-0.12084 0.25328,-0.0507 0.15948,0.19373 -0.0831,0.21652 0.0992,0.55568 0.41925,0.77981 0.31146,0.21816 0.59509,0.59288 0.63029,0.83272 0.0352,0.23984 0.25484,0.65895 0.48809,0.93136 0.23324,0.27241 0.35448,0.56489 0.26942,0.64995 -0.0851,0.0851 -0.0157,0.15465 0.15403,0.15465 0.16978,0 0.30868,0.17009 0.30868,0.37797 0,0.20789 0.15261,0.53531 0.33912,0.72761 0.18652,0.19229 1.16045,1.77838 2.1643,3.52463 1.00384,1.74625 2.27214,3.84152 2.81844,4.65615 2.0161,3.00642 5.2384,5.22097 8.62902,5.93038 1.96433,0.41099 2.64451,0.81596 0.8805,0.52425 -1.58384,-0.26193 -3.8359,-1.05455 -4.94655,-1.74097 l -0.90959,-0.56216 -7.06731,4.03517 c -3.88702,2.21935 -7.45531,4.26635 -7.92954,4.54889 l -0.86224,0.51372 0.86224,1.52075 c 1.46724,2.58782 1.66963,2.82962 2.08272,2.48829 0.6839,-0.56511 18.55294,-10.69591 18.66613,-10.58272 0.0618,0.0618 -3.91113,2.40974 -8.82878,5.2176 -4.91764,2.80787 -9.25837,5.32369 -9.64605,5.59071 l -0.70489,0.48549 z m -8.25769,-26.27533 c 0,-0.0728 -0.35718,0.0524 -0.79375,0.27817 -0.43656,0.22576 -0.79375,0.47 -0.79375,0.54276 0,0.0728 0.35719,-0.0524 0.79375,-0.27817 0.43657,-0.22576 0.79375,-0.47 0.79375,-0.54276 z m 2.38125,-1.32292 c 0,-0.0728 -0.35718,0.0524 -0.79375,0.27818 -0.43656,0.22575 -0.79375,0.46999 -0.79375,0.54275 0,0.0728 0.35719,-0.0524 0.79375,-0.27817 0.43657,-0.22576 0.79375,-0.47 0.79375,-0.54276 z m 1.85209,-1.05833 c 0,-0.0728 -0.35719,0.0524 -0.79375,0.27817 -0.43656,0.22576 -0.79375,0.47 -0.79375,0.54276 0,0.0728 0.35719,-0.0524 0.79375,-0.27817 0.43656,-0.22576 0.79375,-0.47 0.79375,-0.54276 z m 1.32291,-0.79878 c 0,-0.0728 -0.23812,-0.005 -0.52916,0.15091 -0.29104,0.15576 -0.52917,0.34273 -0.52917,0.41549 0,0.0728 0.23813,0.005 0.52917,-0.15091 0.29104,-0.15576 0.52916,-0.34273 0.52916,-0.41549 z m 1.85209,-1.0533 c 0,-0.0728 -0.35719,0.0524 -0.79375,0.27817 -0.43656,0.22575 -0.79375,0.47 -0.79375,0.54276 0,0.0728 0.35719,-0.0524 0.79375,-0.27818 0.43656,-0.22575 0.79375,-0.46999 0.79375,-0.54275 z m 24.55664,19.80889 c 0.19099,-0.0764 0.4192,-0.067 0.50712,0.0209 0.0879,0.0879 -0.0684,0.15045 -0.34727,0.13896 -0.30822,-0.0127 -0.37092,-0.0754 -0.15985,-0.15985 z m 2.56315,-0.61301 c 0.0899,-0.14552 0.21603,-0.26459 0.2802,-0.26459 0.0642,0 0.11667,0.11907 0.11667,0.26459 0,0.14552 -0.12608,0.26458 -0.28019,0.26458 -0.15411,0 -0.20662,-0.11906 -0.11668,-0.26458 z m 5.42396,-2.769 c 0,-0.204 1.55479,-1.72892 1.76277,-1.72892 0.10622,0 -0.21078,0.41672 -0.70444,0.92604 -0.88556,0.91367 -1.05833,1.04474 -1.05833,0.80288 z m 4.29314,-6.55756 c 0.35409,-0.91398 0.5781,-2.24874 0.65497,-3.90261 0.12763,-2.74595 -0.28727,-4.76676 -1.60253,-7.80521 -1.34652,-3.11065 -0.75039,-7.11884 1.38126,-9.28716 1.17765,-1.1979 1.88774,-1.78181 1.88774,-1.55229 0,0.0889 0.1859,-0.0243 0.4131,-0.25147 0.701,-0.701 3.23065,-1.29118 4.88956,-1.14075 5.42219,0.49167 9.18507,6.04612 7.48599,11.0502 -0.66911,1.97066 -4.06543,7.92835 -4.51973,7.92835 -0.20675,0 -0.28149,0.13132 -0.17386,0.30546 0.11525,0.18648 0.0728,0.23376 -0.1091,0.12136 -0.28115,-0.17376 -10.13502,5.28604 -10.32311,5.7198 -0.0485,0.11186 -0.1859,0.20338 -0.30531,0.20338 -0.11941,0 0.025,-0.62508 0.32102,-1.38906 z m 4.04123,-1.65151 c 1.89177,-1.08998 4.22121,-2.41961 5.17653,-2.95472 1.67771,-0.93975 1.79679,-1.07741 3.49236,-4.03726 1.73291,-3.02505 2.4265,-4.49255 2.22062,-4.69844 -0.058,-0.058 -3.19372,1.65513 -6.9682,3.80701 l -6.86268,3.91252 -0.052,1.45521 c -0.0286,0.80036 -0.21438,2.13982 -0.41281,2.97656 -0.19844,0.83675 -0.28713,1.52125 -0.19709,1.52113 0.09,-1.2e-4 1.71151,-0.89203 3.60328,-1.98201 z M 561.5876,266.0878 c -0.0815,-0.21237 -0.3406,-0.31814 -0.58701,-0.23963 -0.37917,0.12081 -0.38538,0.0999 -0.0443,-0.149 0.35278,-0.25737 0.35278,-0.31849 0,-0.55007 -0.25443,-0.16702 -0.28061,-0.26199 -0.0729,-0.26458 0.17817,-0.002 0.50864,0.35313 0.7344,0.78969 0.22576,0.43657 0.34414,0.79375 0.26307,0.79375 -0.0811,0 -0.21303,-0.17107 -0.29327,-0.38016 z m -1.55722,-2.43858 c -0.56278,-1.34691 -0.28665,-1.43133 0.38371,-0.11731 0.30416,0.59618 0.43312,1.08397 0.2866,1.08397 -0.14653,0 -0.44817,-0.435 -0.67031,-0.96666 z"
       id="path9" /><path
       style="fill:#cc0000;fill-opacity:1"
       d="m 482.63967,281.28463 c -0.15576,-0.29104 -0.22367,-0.52917 -0.1509,-0.52917 0.0728,0 0.25973,0.23813 0.41549,0.52917 0.15576,0.29104 0.22367,0.52917 0.15091,0.52917 -0.0728,0 -0.25973,-0.23813 -0.4155,-0.52917 z m -3.30597,-5.76485 c -4.20964,-7.22305 -4.41376,-7.66028 -4.56538,-9.77938 -0.16703,-2.33446 0.38398,-4.26261 1.71419,-5.99846 2.19925,-2.86992 6.52908,-4.09352 9.93053,-2.80636 2.44698,0.92597 3.61261,2.32164 7.19124,8.61048 1.73767,3.05366 3.34502,5.84516 3.57188,6.20334 0.2656,0.41934 0.29292,0.57754 0.0767,0.44429 -0.18467,-0.11381 -0.63372,-0.79492 -0.99789,-1.51358 l -0.66214,-1.30666 -1.05262,0.53701 c -0.57895,0.29535 -1.05263,0.47812 -1.05263,0.40613 0,-0.072 0.38695,-0.32766 0.8599,-0.56819 0.47294,-0.24052 0.89338,-0.46558 0.9343,-0.50012 0.142,-0.11987 -0.86934,-1.71865 -1.08822,-1.72031 -0.41677,-0.003 -14.19973,8.00055 -14.19973,8.24574 0,0.13504 0.18148,0.59648 0.40329,1.02541 l 0.40329,0.77988 0.98578,-0.61902 c 1.33993,-0.84142 2.17639,-1.27496 2.17639,-1.12803 0,0.0672 -0.65484,0.49684 -1.45521,0.95476 -0.80036,0.45793 -1.45521,0.90269 -1.45521,0.98836 0,0.0857 0.30816,0.6816 0.68479,1.32427 0.37663,0.64268 0.63917,1.21411 0.58343,1.26985 -0.0557,0.0557 -1.39976,-2.12649 -2.98669,-4.84941 z m 4.89347,0.0899 c 0,-0.0728 0.35719,-0.317 0.79375,-0.54276 0.43657,-0.22575 0.79375,-0.35093 0.79375,-0.27817 0,0.0728 -0.35718,0.317 -0.79375,0.54276 -0.43656,0.22575 -0.79375,0.35093 -0.79375,0.27817 z m 2.38125,-1.32292 c 0,-0.0728 0.35719,-0.317 0.79375,-0.54275 0.43657,-0.22576 0.79375,-0.35094 0.79375,-0.27818 0,0.0728 -0.35718,0.317 -0.79375,0.54276 -0.43656,0.22575 -0.79375,0.35093 -0.79375,0.27817 z m 1.85209,-1.05833 c 0,-0.0728 0.35719,-0.317 0.79375,-0.54276 0.43656,-0.22575 0.79375,-0.35093 0.79375,-0.27817 0,0.0728 -0.35719,0.317 -0.79375,0.54276 -0.43656,0.22575 -0.79375,0.35093 -0.79375,0.27817 z m 1.85208,-1.05331 c 0,-0.0728 0.23813,-0.25973 0.52917,-0.41549 0.29104,-0.15576 0.52916,-0.22367 0.52916,-0.15091 0,0.0728 -0.23812,0.25973 -0.52916,0.41549 -0.29104,0.15577 -0.52917,0.22367 -0.52917,0.15091 z m 1.32292,-0.79877 c 0,-0.0728 0.35719,-0.31701 0.79375,-0.54276 0.43656,-0.22576 0.79375,-0.35093 0.79375,-0.27817 0,0.0728 -0.35719,0.317 -0.79375,0.54275 -0.43656,0.22576 -0.79375,0.35094 -0.79375,0.27818 z"
       id="path8" /></g><path
     style="opacity:1;fill:#b98bee;fill-opacity:1;stroke-width:1.50019;stroke-linecap:round;stroke-linejoin:bevel"
     d="m 1044.2443,570.48045 c -23.0455,18.17959 -47.91824,34.27711 -74.94023,45.74036 -27.022,11.46326 -56.28936,18.20792 -85.63191,17.42712 -29.34254,-0.78081 -58.75177,-9.32642 -82.71747,-26.27457 -23.9657,-16.94815 -42.14068,-42.54799 -48.12241,-71.28496 -4.59452,-22.07267 -2.05251,-44.9311 0.54043,-67.32728 2.59295,-22.39619 5.20424,-45.23625 0.74209,-67.33606 -6.22672,-30.83929 -25.57181,-57.24221 -45.52078,-81.57063 -19.94898,-24.32842 -41.39511,-48.31055 -53.23236,-77.46039 -13.17409,-32.44187 -13.24856,-69.4334 -3.34737,-103.01909 9.9012,-33.58568 29.34219,-63.88308 53.36519,-89.357133 51.95242,-55.0904908 126.57851,-88.136018 202.28901,-89.527551 75.7105,-1.391533 151.51761,28.901611 205.38461,82.121579 35.6897,35.261051 61.7337,79.975245 76.0219,128.068335 14.2882,48.09309 16.9119,99.46141 8.8619,148.98208 -16.1,99.04133 -74.9127,188.67226 -153.6926,250.81819 z"
     id="path7238"
     inkscape:path-effect="#path-effect7240"
     inkscape:original-d="m 1044.2443,570.48045 c 21.8023,218.88113 -263.19656,-6.60411 -291.41202,-34.39205 -28.21543,-27.78792 0.85527,-89.7753 1.28252,-134.66334 0.42725,-44.88807 -65.83516,-106.02042 -98.75314,-159.03102 -32.91797,-53.0106 33.34549,-128.25055 50.01782,-192.376223 16.67234,-64.125671 385.44372,21.664476 407.67362,-7.405972 22.2299,-29.070451 -90.6112,308.987485 -68.8088,527.868605 z"
     sodipodi:nodetypes="sssssss" /></svg>
